<?xml version="1.0" encoding="UTF-8"?>
<svg xmlns="http://www.w3.org/2000/svg" width="20" height="20" viewBox="0 0 20 20" fill="none">
  <path d="M19.9999 9.16669H18.3333V14.1667H19.9999V9.16669Z" fill="#241F21"></path>
  <path d="M11.0341 13.1083C10.7058 13.2583 10.3583 13.3333 9.99992 13.3333C9.64158 13.3333 9.29409 13.2583 8.96659 13.1092L3.33325 10.5483V15C3.33325 17.1883 6.68658 18.3333 9.99992 18.3333C13.3133 18.3333 16.6666 17.1883 16.6666 15V10.5492L11.0341 13.1083Z" fill="#241F21"></path>
  <path d="M19.5117 5.90834L10.345 1.74167C10.1258 1.64251 9.875 1.64251 9.65583 1.74167L0.489167 5.90834C0.190833 6.04334 0 6.33917 0 6.66667C0 6.99417 0.190833 7.29001 0.488333 7.425L9.655 11.5917C9.765 11.6417 9.8825 11.6667 10 11.6667C10.1175 11.6667 10.235 11.6417 10.345 11.5917L19.5117 7.425C19.8092 7.29001 20 6.99417 20 6.66667C20 6.33917 19.8092 6.04334 19.5117 5.90834Z" fill="#241F21"></path>
</svg>
