<?xml version="1.0" encoding="UTF-8"?> <svg xmlns="http://www.w3.org/2000/svg" xmlns:xlink="http://www.w3.org/1999/xlink" version="1.1" id="Livello_1" x="0px" y="0px" viewBox="0 0 540 540" style="enable-background:new 0 0 540 540;" xml:space="preserve"> <style type="text/css"> .st0{fill:#543E81;} .st1{clip-path:url(#SVGID_00000052796179273794936580000002397851682434914463_);} .st2{clip-path:url(#SVGID_00000165230475341988773540000010110766411141639851_);} .st3{clip-path:url(#SVGID_00000085249037060221914550000009366680644951066798_);fill:#FFFFFF;} .st4{clip-path:url(#SVGID_00000108311364618116510120000005883581858586190749_);fill:#BBB1CC;} .st5{clip-path:url(#SVGID_00000013190698459540538930000004960745929650291371_);fill:#EEECF2;} .st6{clip-path:url(#SVGID_00000063603298572760613610000011847220486727984795_);fill:#BBB1CC;} .st7{clip-path:url(#SVGID_00000044146737341051428310000007161505804447696263_);fill:none;stroke:#BBB1CC;stroke-width:2.7303;stroke-linecap:round;stroke-miterlimit:10;} .st8{clip-path:url(#SVGID_00000005265481799430830320000007625470277657468552_);} .st9{clip-path:url(#SVGID_00000156584748199276288200000013961444192370235057_);} .st10{fill:#766499;} .st11{fill:#FCBB47;} .st12{fill:#998BB3;} .st13{fill:none;stroke:#998BB3;stroke-width:0.9288;stroke-miterlimit:10;} .st14{clip-path:url(#SVGID_00000141453637321177941460000001303275644628430497_);} .st15{clip-path:url(#SVGID_00000114044094240796740680000013716530534912276915_);fill:#998BB3;} .st16{clip-path:url(#SVGID_00000041974989557588750350000009618511886022164625_);} .st17{clip-path:url(#SVGID_00000031925963153821850510000016606045968935372728_);fill:#C85A60;} .st18{clip-path:url(#SVGID_00000118364580771566408740000018383931942652126596_);} .st19{clip-path:url(#SVGID_00000154390504460909075960000002951323321521311665_);fill:#C85A60;} .st20{clip-path:url(#SVGID_00000146489871937675591050000010673122066639593609_);} .st21{clip-path:url(#SVGID_00000035506517700237986450000016373183135882221217_);fill:#C85A60;} .st22{clip-path:url(#SVGID_00000020392286771878843110000011722879888702848384_);} .st23{clip-path:url(#SVGID_00000162334460362909406230000007457880366546823094_);} .st24{clip-path:url(#SVGID_00000070797313612063661460000012299570069854314888_);fill:#C85A60;} .st25{clip-path:url(#SVGID_00000167386555700355148520000009081860438248238224_);} .st26{clip-path:url(#SVGID_00000085209282761224310630000003524239431297597335_);fill:#C85A60;} .st27{clip-path:url(#SVGID_00000061431644967412867300000003095624853372908988_);} .st28{clip-path:url(#SVGID_00000137117879371964184040000000055997373424914076_);fill:#C85A60;} .st29{fill:#C85A60;} </style> <g id="Layer_1"> <g> <rect class="st0" width="540" height="540"></rect> </g> </g> <g id="Layer_2"> <g> <g> <g> <defs> <rect id="SVGID_1_" x="24.2" y="85" width="556" height="457"></rect> </defs> <clipPath id="SVGID_00000005971431062859690980000006799135477369109436_"> <use xlink:href="#SVGID_1_" style="overflow:visible;"></use> </clipPath> <g style="clip-path:url(#SVGID_00000005971431062859690980000006799135477369109436_);"> <g> <defs> <rect id="SVGID_00000105392138519390943540000013521928782229200060_" x="24.2" y="85" width="556" height="457"></rect> </defs> <clipPath id="SVGID_00000145052243796069474620000004744167168651994253_"> <use xlink:href="#SVGID_00000105392138519390943540000013521928782229200060_" style="overflow:visible;"></use> </clipPath> </g> </g> </g> <g> <defs> <rect id="SVGID_00000098940740912615531060000005375763607878563757_" x="24.2" y="85" width="556" height="457"></rect> </defs> <clipPath id="SVGID_00000142860761448756445380000016607811866700088748_"> <use xlink:href="#SVGID_00000098940740912615531060000005375763607878563757_" style="overflow:visible;"></use> </clipPath> <g style="clip-path:url(#SVGID_00000142860761448756445380000016607811866700088748_);"> <g> <defs> <path id="SVGID_00000069384400645667288130000016260704160853859499_" d="M39.6,88.8c-6.9,0-12.5,5.6-12.5,12.5v426.5 c0,6.9,5.6,12.5,12.5,12.5H498c6.9,0,12.5-5.6,12.5-12.5V247.2l66.8-76.2h-66.8v-69.8c0-6.9-5.6-12.5-12.5-12.5H39.6z"></path> </defs> <clipPath id="SVGID_00000159444279937780472990000010068686304024284827_"> <use xlink:href="#SVGID_00000069384400645667288130000016260704160853859499_" style="overflow:visible;"></use> </clipPath> <path style="clip-path:url(#SVGID_00000159444279937780472990000010068686304024284827_);fill:#FFFFFF;" d="M358.7,111.5h-178 c-15.3,0-27.6,12.4-27.6,27.6v20.2v6.5v305.8c0,4.8,3.9,8.7,8.7,8.7h216c4.8,0,8.7-3.9,8.7-8.7V165.8v-6.5v-20.2 C386.3,123.9,373.9,111.5,358.7,111.5"></path> </g> <g> <defs> <path id="SVGID_00000044150968967557676200000000300866119774667702_" d="M39.6,88.8c-6.9,0-12.5,5.6-12.5,12.5v426.5 c0,6.9,5.6,12.5,12.5,12.5H498c6.9,0,12.5-5.6,12.5-12.5V247.2l66.8-76.2h-66.8v-69.8c0-6.9-5.6-12.5-12.5-12.5H39.6z"></path> </defs> <clipPath id="SVGID_00000171712560213244208110000009011588494143578299_"> <use xlink:href="#SVGID_00000044150968967557676200000000300866119774667702_" style="overflow:visible;"></use> </clipPath> <path style="clip-path:url(#SVGID_00000171712560213244208110000009011588494143578299_);fill:#BBB1CC;" d="M165.6,528.1h208 c7,0,12.7-5.7,12.7-12.7v-35.2H153v35.2C153,522.5,158.6,528.1,165.6,528.1"></path> </g> <g> <defs> <path id="SVGID_00000122707466540911404540000014727594287256089763_" d="M39.6,88.8c-6.9,0-12.5,5.6-12.5,12.5v426.5 c0,6.9,5.6,12.5,12.5,12.5H498c6.9,0,12.5-5.6,12.5-12.5V247.2l66.8-76.2h-66.8v-69.8c0-6.9-5.6-12.5-12.5-12.5H39.6z"></path> </defs> <clipPath id="SVGID_00000137835925652076301290000017935558297658048915_"> <use xlink:href="#SVGID_00000122707466540911404540000014727594287256089763_" style="overflow:visible;"></use> </clipPath> </g> <g> <defs> <path id="SVGID_00000038376267518991296520000002780015036939313850_" d="M39.6,88.8c-6.9,0-12.5,5.6-12.5,12.5v426.5 c0,6.9,5.6,12.5,12.5,12.5H498c6.9,0,12.5-5.6,12.5-12.5V247.2l66.8-76.2h-66.8v-69.8c0-6.9-5.6-12.5-12.5-12.5H39.6z"></path> </defs> <clipPath id="SVGID_00000023981616116423502530000013516504804243882885_"> <use xlink:href="#SVGID_00000038376267518991296520000002780015036939313850_" style="overflow:visible;"></use> </clipPath> <rect x="160.7" y="155.7" style="clip-path:url(#SVGID_00000023981616116423502530000013516504804243882885_);fill:#EEECF2;" width="220.6" height="300.2"></rect> </g> <g> <defs> <path id="SVGID_00000093892499407719717920000006957697149185565364_" d="M39.6,88.8c-6.9,0-12.5,5.6-12.5,12.5v426.5 c0,6.9,5.6,12.5,12.5,12.5H498c6.9,0,12.5-5.6,12.5-12.5V247.2l66.8-76.2h-66.8v-69.8c0-6.9-5.6-12.5-12.5-12.5H39.6z"></path> </defs> <clipPath id="SVGID_00000110441996134078932670000018180263087782103455_"> <use xlink:href="#SVGID_00000093892499407719717920000006957697149185565364_" style="overflow:visible;"></use> </clipPath> <path style="clip-path:url(#SVGID_00000110441996134078932670000018180263087782103455_);fill:#BBB1CC;" d="M238.9,135.5 c0,1.9-1.6,3.5-3.5,3.5c-1.9,0-3.5-1.6-3.5-3.5c0-1.9,1.6-3.5,3.5-3.5C237.4,132,238.9,133.5,238.9,135.5"></path> </g> <g> <defs> <path id="SVGID_00000056405075490162122430000016992353418780410240_" d="M39.6,88.8c-6.9,0-12.5,5.6-12.5,12.5v426.5 c0,6.9,5.6,12.5,12.5,12.5H498c6.9,0,12.5-5.6,12.5-12.5V247.2l66.8-76.2h-66.8v-69.8c0-6.9-5.6-12.5-12.5-12.5H39.6z"></path> </defs> <clipPath id="SVGID_00000124123792223781983840000010603073555376721038_"> <use xlink:href="#SVGID_00000056405075490162122430000016992353418780410240_" style="overflow:visible;"></use> </clipPath> <line style="clip-path:url(#SVGID_00000124123792223781983840000010603073555376721038_);fill:none;stroke:#BBB1CC;stroke-width:2.7303;stroke-linecap:round;stroke-miterlimit:10;" x1="252.7" y1="135.5" x2="287.1" y2="135.5"></line> </g> </g> </g> <g> <defs> <rect id="SVGID_00000122687557532015652910000007125136339649596350_" x="24.2" y="85" width="556" height="457"></rect> </defs> <clipPath id="SVGID_00000047744446752469690130000000671736821924805562_"> <use xlink:href="#SVGID_00000122687557532015652910000007125136339649596350_" style="overflow:visible;"></use> </clipPath> <g style="clip-path:url(#SVGID_00000047744446752469690130000000671736821924805562_);"> <defs> <rect id="SVGID_00000151537129111390336450000018250559931613144469_" x="154.2" y="127.4" width="228" height="337.8"></rect> </defs> <clipPath id="SVGID_00000049906753425166269680000006421663412898724737_"> <use xlink:href="#SVGID_00000151537129111390336450000018250559931613144469_" style="overflow:visible;"></use> </clipPath> <g style="clip-path:url(#SVGID_00000049906753425166269680000006421663412898724737_);"> <path class="st0" d="M358.6,236.3c-0.1,0.2-0.4,0.3-0.5,0.5c-0.1,0.2-0.2,0.4-0.3,0.6s0,0.5-0.1,0.7c-0.1,0.2,0,0.6-0.1,0.8 c-0.1,0.2-0.1,0.5-0.3,0.6c-0.1,0.2-0.7,0-0.9,0.2s-0.2,0.4-0.3,0.6c-0.1,0.2-0.4,0.2-0.5,0.4c-0.1,0.2,0,0.6-0.1,0.8 s-0.9-0.3-1.1-0.1c-0.1,0.2,0.3,0.9,0.1,1.1s-0.7,0-0.8,0.1s-0.2,0.4-0.4,0.6c-0.2,0.1-0.7-0.1-0.9,0c-0.2,0.1,0.3,1,0.1,1.2 c-0.2,0.1-0.4,0.2-0.6,0.3c-0.2,0.1-1-0.6-1.2-0.4c-0.2,0.1,0.2,0.9,0,1.1c-0.2,0.2-0.7-0.3-0.9-0.1s-0.4,0.1-0.6,0.3 c-0.2,0.1-0.1,0.6-0.3,0.8s0,0.8-0.2,0.9c-0.2,0.1-0.6,0-0.8,0.1c-0.2,0.1-0.4,0.3-0.6,0.4s-0.6-0.2-0.8-0.1 c-0.2,0.1-0.3,0.4-0.5,0.5c-0.2,0.1-0.5,0-0.7,0.1c-0.2,0.1-0.3,0.3-0.5,0.4c-0.2,0.1-0.5,0-0.7,0.1s-0.4,0.3-0.5,0.4 c-0.2,0.1-0.1,1-0.3,1.1c-0.2,0.1-0.7-0.6-0.9-0.5s-0.4,0.1-0.6,0.2c-0.2,0.1-0.5,0-0.7,0s-0.1,1-0.3,1.1 c-0.2,0.1-0.7-0.7-0.9-0.6c-0.2,0.1-0.2,0.9-0.4,1s-0.7-0.8-0.9-0.8c-0.2,0.1-0.4,0.3-0.6,0.3c-0.2,0.1-0.4,0.2-0.6,0.3 c-0.2,0-0.5-0.1-0.7-0.1c-0.2,0-0.4,0.4-0.6,0.5c-0.2,0-0.5-0.2-0.7-0.2c-0.2,0-0.4,0-0.7,0.1c-0.2,0.1-0.3,0.7-0.6,0.7 c-0.2,0-0.5-0.7-0.8-0.7c-0.2,0-0.3,1.2-0.5,1.2c-0.2,0-0.5-0.1-0.7,0c-0.2,0-0.5-1-0.7-1c-0.2,0-0.4,0.1-0.7,0.1 c-0.2,0-0.4,0.8-0.6,0.8c-0.2,0-0.5-0.8-0.7-0.8s-0.4,1.2-0.7,1.2c-0.2,0-0.4-0.4-0.7-0.4c-0.2,0-0.4-0.8-0.6-0.8 c-0.2,0-0.5,1.1-0.7,1.1c-0.2,0-0.4-0.2-0.7-0.2c-0.2,0-0.4-0.7-0.6-0.8c-0.2,0-0.4-0.3-0.6-0.4c-0.2,0-0.5,0.3-0.7,0.3 c-0.2,0-0.5,0.2-0.7,0.2c-0.2,0-0.3-0.7-0.5-0.8c-0.2,0-0.5,0.2-0.7,0.1c-0.2,0-0.4-0.3-0.6-0.3c-0.2,0-0.5,0.4-0.8,0.4 c-0.2,0-0.4-0.3-0.6-0.3c-0.2-0.1-0.5,0-0.7-0.1c-0.2-0.1-0.4-0.2-0.6-0.3c-0.2-0.1-0.6,0.6-0.8,0.5c-0.2-0.1-0.1-1-0.3-1.1 s-0.4-0.1-0.6-0.2s-0.6,0.5-0.8,0.4c-0.2-0.1-0.4-0.3-0.6-0.4s-0.6,0.3-0.8,0.2c-0.2-0.1-0.1-0.9-0.3-0.9 c-0.2-0.1-0.3-0.3-0.5-0.4s-0.7,0.5-0.9,0.4c-0.2-0.1-0.1-0.9-0.3-0.9c-0.2-0.1-0.7,0.3-0.9,0.3s-0.2-0.7-0.4-0.8 c-0.2-0.1-0.6,0.2-0.8,0.1c-0.2-0.1,0-0.8-0.2-0.9c-0.2-0.1-0.4-0.1-0.6-0.2c-0.2-0.1-0.5,0-0.7-0.2c-0.2-0.2-0.3-0.3-0.5-0.4 c-0.2-0.1-0.5-0.1-0.7-0.2c-0.2-0.1-0.4-0.1-0.6-0.3c-0.2-0.1-0.4-0.2-0.6-0.3s-0.3-0.3-0.5-0.4c-0.2-0.1-0.5-0.1-0.7-0.2 c-0.2-0.1-0.2-0.5-0.4-0.6c-0.2-0.1-0.3-0.4-0.5-0.5c-0.2-0.1-0.2-0.5-0.3-0.6c-0.2-0.1-0.4-0.2-0.6-0.4l-0.5-0.4 c-0.2-0.1-0.5-0.1-0.7-0.2c-0.2-0.2,0.2-0.8,0-1c-0.2-0.2-0.4-0.2-0.5-0.4s-1.1,0.5-1.3,0.3c-0.2-0.2,0.1-0.7,0-0.9 c-0.2-0.2-0.4-0.2-0.6-0.4c-0.1-0.2-0.5-0.2-0.6-0.4c-0.1-0.2-0.3-0.3-0.4-0.5c-0.1-0.2-0.3-0.4-0.4-0.5s0-0.6-0.2-0.7 c-0.2-0.2,0.1-0.7,0-0.8c-0.1-0.2-0.5-0.2-0.6-0.4c-0.1-0.2-0.6-0.1-0.8-0.3s0.3-0.8,0.2-0.9c-0.1-0.2-0.8,0-0.9-0.2 c-0.2-0.2-0.4-0.3-0.5-0.5c-0.1-0.2-0.2-0.4-0.3-0.6c-0.1-0.2-0.4-0.3-0.6-0.4c-0.1-0.2,0.2-0.7,0.1-0.8 c-0.1-0.2-0.8-0.1-0.9-0.3c-0.1-0.2-0.1-0.5-0.2-0.7c-0.1-0.2-0.4-0.3-0.5-0.5s-0.3-0.4-0.4-0.6c-0.1-0.2,0-0.5-0.1-0.7 c-0.1-0.2,0.2-0.6,0.1-0.8c-0.1-0.2,0.2-0.6,0.1-0.8c-0.1-0.2-0.1-0.4-0.2-0.7c-0.1-0.2-0.6-0.2-0.7-0.4 c-0.1-0.2-0.5-0.3-0.6-0.5l-0.3-0.6c-0.1-0.2,0.5-0.7,0.4-0.9c-0.1-0.2-0.9-0.1-0.9-0.4c0-0.2,0.3-0.6,0.2-0.8 c-0.1-0.2,0-0.4-0.1-0.7c-0.1-0.2,0-0.5-0.1-0.7c-0.1-0.2-0.7-0.3-0.8-0.5c-0.1-0.2-0.1-0.4-0.2-0.7c-0.1-0.2,0.3-0.5,0.3-0.8 c-0.1-0.2,0-0.4-0.1-0.7c-0.1-0.2-0.1-0.4-0.1-0.7c-0.1-0.2,0.2-0.5,0.2-0.7c0-0.2-1-0.3-1-0.5s-0.2-0.4-0.3-0.6 c0-0.2,0.7-0.6,0.6-0.8c0-0.2,0.2-0.5,0.1-0.7s-0.2-0.4-0.2-0.6c0-0.2,0.1-0.5,0-0.7c-0.1-0.2-0.4-0.4-0.4-0.6 c0-0.2-0.4-0.4-0.4-0.6c0-0.2-0.2-0.4-0.2-0.7c0-0.2,0.5-0.5,0.5-0.7c0-0.2-0.2-0.4-0.2-0.7s-0.6-0.4-0.6-0.7s0.9-0.5,0.9-0.7 v-0.7c0-0.2-0.7-0.5-0.7-0.7s0-0.4,0-0.7c0-0.2,0.4-0.4,0.4-0.7c0-0.2,0.5-0.4,0.6-0.6c0-0.2-1-0.5-1-0.8c0-0.2,0-0.5,0-0.7 c0-0.2,1-0.3,1-0.6c0-0.2-0.7-0.5-0.6-0.8s0.8-0.3,0.8-0.5c0-0.2-0.7-0.6-0.6-0.8c0-0.2,0.3-0.4,0.3-0.6c0-0.2-0.1-0.5,0-0.7 c0-0.2-0.1-0.5-0.1-0.7c0.1-0.2,0.7-0.3,0.7-0.5s-0.1-0.5-0.1-0.7c0.1-0.2,0.3-0.4,0.4-0.6c0.1-0.2,0.2-0.4,0.3-0.6 c0.1-0.2-0.4-0.6-0.4-0.8c0.1-0.2,0.3-0.4,0.3-0.6c0.1-0.2,0.7-0.2,0.8-0.4c0.1-0.2-0.2-0.6-0.2-0.8c0.1-0.2,0.1-0.4,0.2-0.7 c0.1-0.2,1-0.1,1.1-0.3c0.1-0.2-0.2-0.6-0.1-0.8c0.1-0.2-0.2-0.6-0.1-0.8c0.1-0.2,0.9,0,1-0.2s-0.3-0.6-0.2-0.8 c0.1-0.2,0.4-0.3,0.5-0.5c0.1-0.2,0-0.5,0.1-0.7c0.1-0.2-0.1-0.6,0-0.8c0.1-0.2,0.5-0.2,0.6-0.4s0.2-0.4,0.3-0.6 s0.1-0.5,0.2-0.7c0.1-0.2,0.2-0.4,0.3-0.6c0.1-0.2,0.8,0,0.9-0.2c0.1-0.2-0.3-0.8-0.2-0.9s1,0.2,1.1,0s0.2-0.4,0.3-0.6 s0.4-0.2,0.6-0.4c0.1-0.2-0.5-1-0.4-1.2c0.1-0.2,0.5-0.1,0.7-0.3c0.1-0.2,0.3-0.3,0.5-0.5s0.4-0.2,0.6-0.4s0.4-0.2,0.5-0.4 c0.2-0.2,0.2-0.4,0.4-0.6s0.6,0,0.8-0.2c0.2-0.2-0.3-1-0.1-1.2s0.7,0.1,0.8-0.1c0.2-0.1,0.7,0.1,0.9,0 c0.2-0.1,0.3-0.4,0.4-0.5s0.2-0.5,0.3-0.6c0.2-0.1,0.4-0.2,0.6-0.3s0.3-0.3,0.5-0.5c0.2-0.1,0.2-0.5,0.4-0.6 c0.2-0.1,0.5,0,0.7-0.1c0.2-0.1,0.5-0.1,0.7-0.2c0.2-0.1,0.1-0.8,0.3-0.9c0.2-0.1,0.3-0.4,0.5-0.5c0.2-0.1,0.8,0.5,1,0.4 c0.2-0.1,0.3-0.5,0.5-0.6c0.2-0.1,0.5,0.1,0.7,0c0.2-0.1,0.3-0.4,0.5-0.5s0.4-0.3,0.6-0.4c0.2-0.1,0.6,0.3,0.8,0.3 s0.3-0.4,0.5-0.5c0.2-0.1,0.5,0,0.7-0.1s0.2-0.8,0.4-0.9c0.2-0.1,0.7,0.6,0.9,0.5c0.2-0.1,0.1-1.1,0.3-1.2s0.5,0.1,0.7,0 c0.2-0.1,0.5,0,0.7,0s0.5,0,0.7-0.1s0.5,0.2,0.7,0.1c0.2-0.1,0.4-0.3,0.6-0.3c0.2,0,0.5,0.3,0.7,0.2c0.2,0,0.3-1,0.5-1 c0.2,0,0.6,0.8,0.8,0.7c0.2,0,0.4-0.6,0.6-0.6s0.4-0.3,0.6-0.3c0.2,0,0.5,0.8,0.8,0.8s0.4-0.7,0.6-0.7l0.7-0.1 c0.2,0,0.5,0.5,0.7,0.5c0.2,0,0.4-0.7,0.6-0.7s0.5,0.4,0.7,0.4s0.4,0.1,0.7,0.1c0.2,0,0.4-0.1,0.7-0.1c0.2,0,0.4,0.3,0.7,0.3 c0.2,0,0.5-1,0.7-1c0.2,0,0.4,0.9,0.6,1c0.2,0.1,0.4,0.1,0.7,0.1c0.2,0,0.4,0.1,0.6,0.1c0.2,0,0.6-0.9,0.8-0.9 c0.2,0,0.3,0.9,0.5,1c0.2,0,0.6-0.6,0.8-0.6c0.2,0,0.3,1,0.5,1s0.5-0.4,0.8-0.4c0.2,0,0.4,0,0.7,0c0.2,0,0.5,0,0.7,0 s0.5-0.1,0.7,0s0.2,0.9,0.4,0.9c0.2,0,0.4,0.2,0.6,0.3s0.6-0.3,0.8-0.3s0.4,0.2,0.6,0.3c0.2,0.1,0.6-0.4,0.8-0.3 c0.2,0.1,0.3,0.6,0.5,0.7s0.3,0.4,0.5,0.5c0.2,0.1,0.6-0.4,0.8-0.3c0.2,0.1,0.3,0.5,0.5,0.6l0.6,0.3c0.2,0.1,0.5-0.1,0.7,0 c0.2,0.1,0,0.9,0.2,1c0.2,0.1,0.5-0.1,0.7,0l0.6,0.3c0.2,0.1,0.8-0.5,0.9-0.4c0.2,0.1-0.2,1.2,0,1.3c0.2,0.1,0.9-0.7,1.1-0.6 s0.4,0.2,0.6,0.3c0.2,0.1,0.2,0.5,0.4,0.6l0.5,0.4c0.2,0.1-0.1,0.9,0.1,1c0.2,0.1,0.7-0.2,0.9-0.1c0.2,0.1,0.5,0.1,0.6,0.3 s0,0.7,0.2,0.9c0.2,0.1,0.5,0.1,0.7,0.2c0.2,0.1,0.4,0.2,0.6,0.3s0.6,0,0.8,0.1c0.2,0.1-0.2,0.9-0.1,1.1 c0.2,0.2,0.4,0.2,0.6,0.4c0.2,0.2,0.8-0.2,1-0.1s-0.3,0.9-0.1,1.1c0.2,0.2,0.7,0,0.8,0.1c0.2,0.1,0.1,0.6,0.2,0.7 c0.1,0.2,0.8-0.2,1,0c0.2,0.2-0.4,1-0.3,1.2s0.6,0,0.8,0.2s0.1,0.5,0.2,0.7c0.1,0.2,0.8-0.1,1,0.1c0.1,0.2-0.2,0.7,0,0.9 s0.7,0,0.9,0.2c0.1,0.2,0.2,0.4,0.4,0.6s0.5,0.2,0.6,0.4c0.1,0.2-0.3,0.7-0.1,0.9c0.1,0.2,0.8,0,0.9,0.2 c0.1,0.2-0.6,0.9-0.5,1.1c0.1,0.2,0.4,0.3,0.5,0.5c0.1,0.2,0.2,0.4,0.3,0.6c0.1,0.2,0.1,0.5,0.2,0.7c0.1,0.2,0.8,0,0.9,0.2 c0.1,0.2,0,0.5,0.1,0.7c0.1,0.2,0.3,0.4,0.4,0.6c0.1,0.2-0.3,0.6-0.2,0.8c0.1,0.2,1.3-0.1,1.4,0.1c0.1,0.2,0.1,0.4,0.2,0.6 s-0.1,0.6,0,0.8c0.1,0.2,0.2,0.4,0.3,0.6c0.1,0.2-0.3,0.6-0.3,0.8s0.7,0.2,0.8,0.4c0.1,0.2-0.5,0.7-0.4,0.9 c0.1,0.2,0.4,0.3,0.5,0.5c0.1,0.2-0.3,0.6-0.2,0.8c0.1,0.2,1,0.1,1,0.4s0.4,0.4,0.5,0.6c0.1,0.2-0.2,0.5-0.1,0.7 c0.1,0.2-0.4,0.6-0.3,0.8c0.1,0.2,0.4,0.4,0.4,0.6c0.1,0.2,0.4,0.4,0.4,0.6c0,0.2,0.1,0.4,0.2,0.7c0,0.2-0.5,0.6-0.4,0.8 c0,0.2,0.4,0.4,0.5,0.6c0,0.2,0.3,0.4,0.3,0.6c0,0.2,0.4,0.4,0.5,0.6s-0.1,0.5-0.1,0.7c0,0.2,0.2,0.4,0.2,0.7 c0,0.2-0.6,0.5-0.6,0.8c0,0.2,0.2,0.4,0.2,0.7c0,0.2-0.4,0.5-0.4,0.7c0,0.2,1.2,0.4,1.2,0.6c0,0.2-1.1,0.5-1.1,0.7 s0.3,0.4,0.3,0.7c0,0.2,0.3,0.4,0.3,0.7c0,0.2,0,0.4,0,0.7c0,0.2,0.2,0.4,0.2,0.7s0.1,0.5,0.1,0.7c0,0.2,0.4,0.5,0.3,0.7 c0,0.2-0.9,0.4-0.9,0.6c0,0.2,0.5,0.5,0.5,0.7c0,0.2-0.4,0.4-0.4,0.6c0,0.2-0.6,0.4-0.7,0.6c0,0.2,0.8,0.5,0.8,0.8 c0,0.2-0.2,0.4-0.3,0.6s-0.3,0.4-0.3,0.6c0,0.2,0.2,0.5,0.2,0.7c0,0.2,0.1,0.5,0,0.7s-0.5,0.4-0.5,0.6s0.5,0.6,0.5,0.8 c0,0.2-0.8,0.3-0.8,0.5s-0.5,0.3-0.6,0.5c-0.1,0.2-0.1,0.4-0.2,0.6c-0.1,0.2,0,0.5,0,0.7c0,0.2,0.3,0.6,0.3,0.8 c-0.1,0.2-0.6,0.3-0.7,0.5c-0.1,0.2,0.8,0.8,0.7,1c-0.1,0.2-0.2,0.4-0.3,0.6c-0.1,0.2-0.4,0.3-0.5,0.5 c-0.1,0.2-0.1,0.5-0.2,0.7c-0.1,0.2-0.8,0.1-0.9,0.4c-0.1,0.2,0.5,0.7,0.4,0.9c-0.1,0.2-0.6,0.2-0.7,0.4 c-0.1,0.2,0,0.5-0.1,0.7s-0.9,0-1,0.2c-0.1,0.2-0.2,0.4-0.3,0.6c-0.1,0.2,0.2,0.7,0.1,0.8c-0.1,0.2-0.7,0.1-0.8,0.3 c-0.1,0.2,0,0.5-0.2,0.7C358.6,235.9,358.7,236.2,358.6,236.3z"></path> <path class="st0" d="M176.1,236.6c0.1,0.2,0.1,0.5,0.3,0.6s0.3,0.3,0.4,0.5c0.1,0.2,0.5,0.2,0.7,0.4s0.6,0.1,0.7,0.3 c0.1,0.2,0.4,0.2,0.5,0.4c0.1,0.2-0.2,0.7,0,0.9c0.2,0.2,0.4,0.3,0.5,0.4c0.1,0.2,0.2,0.4,0.3,0.6c0.1,0.2,0.6,0,0.8,0.2 c0.1,0.2-0.3,0.9-0.1,1.1c0.2,0.1,0.9-0.3,1.1-0.1c0.1,0.2,0,0.7,0.1,0.8s0.4,0.2,0.6,0.4c0.2,0.2,0,0.7,0.1,0.9 c0.2,0.1,0.9-0.4,1.1-0.3s0.3,0.4,0.4,0.5c0.2,0.1-0.3,1.1-0.2,1.3c0.2,0.1,0.9-0.4,1.1-0.3c0.2,0.1,0,0.8,0.1,0.9 c0.1,0.1,0.3,0.4,0.5,0.5c0.2,0.1,0.6-0.1,0.8,0c0.2,0.1,0.7-0.3,0.9-0.1c0.2,0.1,0.2,0.5,0.4,0.7c0.2,0.1,0.4,0.2,0.6,0.3 c0.2,0.1,0.1,0.7,0.3,0.8c0.2,0.1,0.5,0,0.7,0.1c0.2,0.1,0.3,0.4,0.5,0.5s0.5,0.1,0.7,0.2c0.2,0.1,0.3,0.4,0.5,0.5 c0.2,0.1,0.5,0.1,0.7,0.2c0.2,0.1,0.8-0.6,0.9-0.5c0.2,0.1,0.1,0.9,0.3,1s0.4,0.2,0.6,0.3s0.4,0.3,0.6,0.4 c0.2,0.1,0.7-0.7,0.9-0.6s0.1,1,0.4,1c0.2,0.1,0.7-0.7,0.9-0.6s0.2,1.1,0.4,1.1c0.2,0.1,0.5,0,0.7,0c0.2,0,0.5,0,0.7,0 s0.4,0.3,0.6,0.4c0.2,0,0.5-0.3,0.7-0.2c0.2,0,0.4,0.4,0.6,0.4c0.2,0,0.4,0.1,0.7,0.1c0.2,0,0.5-0.5,0.8-0.5 c0.2,0,0.3,0.8,0.6,0.8s0.6-1.1,0.8-1.1c0.2,0,0.4,0.2,0.7,0.2c0.2,0,0.4,1,0.6,1.1s0.5,0,0.7,0s0.5-0.7,0.7-0.7 s0.4,0.8,0.7,0.8s0.4-1.2,0.7-1.2c0.2,0,0.4,0.4,0.7,0.4c0.2,0,0.5,0.7,0.7,0.7c0.2,0,0.4-1.1,0.6-1.2c0.2,0,0.4,0.2,0.7,0.1 c0.2,0,0.5,0.7,0.7,0.6c0.2,0,0.5,0.3,0.7,0.2c0.2,0,0.4-0.4,0.6-0.4s0.4-0.4,0.6-0.4c0.2,0,0.6,0.6,0.8,0.5 c0.2,0,0.4-0.3,0.6-0.4c0.2,0,0.5,0.1,0.7,0c0.2-0.1,0.3-0.6,0.5-0.7c0.2,0,0.5,0.1,0.7,0s0.4-0.2,0.6-0.3 c0.2-0.1,0.5,0,0.7-0.1c0.2-0.1,0.2-0.8,0.4-0.9c0.2-0.1,0.7,0.8,0.9,0.7c0.2-0.1,0.4-0.2,0.6-0.3c0.2-0.1,0.2-0.8,0.4-0.8 c0.2-0.1,0.5,0,0.7,0c0.2,0,0.2-0.6,0.4-0.7c0.2-0.1,0.7,0.5,0.9,0.4s0.5,0,0.7-0.1c0.2-0.1,0.1-0.9,0.3-0.9s0.7,0.5,0.9,0.4 c0.2-0.1,0.1-0.7,0.3-0.8s0.6,0.2,0.8,0.1c0.2-0.1,0.2-0.6,0.4-0.7c0.2-0.1,0.7,0.4,0.9,0.3c0.2-0.1,0.3-0.3,0.5-0.4 c0.2-0.1,0.3-0.4,0.5-0.5c0.2-0.1,0.4-0.2,0.6-0.3s0.3-0.4,0.5-0.5s0.3-0.3,0.5-0.5c0.2-0.1,0.3-0.3,0.5-0.4 c0.2-0.1,0.4-0.2,0.6-0.3s0.2-0.4,0.4-0.6c0.2-0.1,0.5-0.1,0.7-0.2c0.2-0.1,0.4-0.2,0.6-0.3s0.5-0.1,0.7-0.2s0.3-0.3,0.5-0.5 l0.5-0.4c0.2-0.1,0.1-0.5,0.3-0.7c0.2-0.1,0.8,0.2,1,0.1c0.2-0.1,0.3-0.4,0.4-0.5c0.2-0.2-0.5-1.1-0.3-1.3 c0.2-0.2,0.7,0.1,0.9-0.1c0.2-0.2,0.2-0.5,0.3-0.6s0.1-0.5,0.3-0.6c0.1-0.2,0.3-0.3,0.5-0.5c0.1-0.2,0.3-0.3,0.5-0.5 c0.1-0.2,0.5-0.1,0.7-0.3c0.1-0.2,0.7,0,0.8-0.2c0.1-0.2,0.1-0.5,0.2-0.7c0.1-0.2-0.1-0.6,0.1-0.8c0.1-0.2,0.8,0,0.9-0.1 s-0.2-0.7-0.1-0.9c0.1-0.2,0.1-0.4,0.3-0.6s0.3-0.3,0.4-0.5c0.1-0.2,0.1-0.5,0.2-0.7c0.1-0.2,0.7-0.1,0.8-0.3 c0.1-0.2-0.3-0.7-0.2-0.9c0.1-0.2,0.4-0.3,0.5-0.5c0.1-0.2,0-0.5,0.1-0.7c0.1-0.2,0.2-0.4,0.3-0.6c0.1-0.2,0.4-0.3,0.5-0.5 c0.1-0.2,0.6-0.2,0.7-0.4s0.6-0.2,0.7-0.4s0.3-0.4,0.4-0.6c0.1-0.2-0.3-0.6-0.2-0.8c0.1-0.2-0.2-0.6-0.1-0.8 c0.1-0.2,0.2-0.4,0.3-0.6c0.1-0.2,0.8-0.2,0.9-0.4s-0.6-0.7-0.5-0.9c0.1-0.2,0.6-0.3,0.7-0.5c0.1-0.2,0.2-0.4,0.3-0.6 c0.1-0.2,0.2-0.4,0.3-0.6c0.1-0.2-0.5-0.6-0.4-0.8c0.1-0.2,0.1-0.4,0.2-0.6c0.1-0.2,0.5-0.3,0.6-0.5c0.1-0.2,0.2-0.4,0.3-0.6 c0.1-0.2,0.1-0.4,0.2-0.7c0-0.2,0.4-0.4,0.5-0.6s-0.8-0.6-0.8-0.8c0-0.2-0.1-0.5,0-0.7c0.1-0.2,0.8-0.3,0.9-0.5 c0-0.2,0.3-0.4,0.4-0.6c0-0.2-0.1-0.5,0-0.7c0.1-0.2,0.2-0.4,0.2-0.7s-0.3-0.5-0.3-0.7s-0.3-0.5-0.3-0.7 c0-0.2-0.1-0.5-0.1-0.7s0.6-0.4,0.6-0.6c0-0.2-0.2-0.5-0.1-0.7c0-0.2-0.5-0.5-0.5-0.7s0.9-0.4,0.9-0.7v-0.7 c0-0.2-0.7-0.4-0.8-0.7c0-0.2,0-0.4,0-0.7c0-0.2,0.4-0.5,0.4-0.7c0-0.2,0.5-0.5,0.5-0.7s-1.1-0.4-1.1-0.6 c0-0.2-0.1-0.4-0.1-0.7s0.9-0.6,0.9-0.8c-0.1-0.2-0.8-0.3-0.8-0.6c0-0.2,0.7-0.6,0.6-0.8c0-0.2-0.8-0.3-0.8-0.5 c0-0.2,0.1-0.5,0.1-0.7s-0.3-0.4-0.3-0.6c0-0.2-0.3-0.4-0.4-0.6s0.5-0.6,0.4-0.8c0-0.2-0.3-0.4-0.4-0.6s0.1-0.5,0-0.7 c-0.1-0.2,0-0.5-0.1-0.7c-0.1-0.2-0.7-0.3-0.8-0.5c-0.1-0.2,0-0.5-0.1-0.7c-0.1-0.2,0.4-0.6,0.3-0.8c-0.1-0.2-0.6-0.3-0.6-0.5 s-0.2-0.4-0.3-0.6s0.7-0.8,0.6-0.9c-0.1-0.2-0.6-0.2-0.7-0.4c-0.1-0.2-0.6-0.2-0.7-0.4c-0.1-0.2,0.6-0.8,0.5-1 c-0.1-0.2-0.7-0.2-0.8-0.4c-0.1-0.2,0-0.5-0.1-0.7c-0.1-0.2-0.4-0.3-0.5-0.5c-0.1-0.2-0.5-0.2-0.6-0.4 c-0.1-0.2,0.1-0.5-0.1-0.7c-0.1-0.2-0.3-0.3-0.4-0.5c-0.1-0.2-0.4-0.3-0.5-0.5c-0.1-0.2-0.3-0.3-0.4-0.5 c-0.1-0.2,0.2-0.7,0.1-0.9c-0.1-0.2-0.8,0-0.9-0.1s0.5-0.9,0.3-1.1c-0.1-0.2-0.4-0.3-0.5-0.5c-0.1-0.2-0.1-0.5-0.3-0.7 c-0.1-0.2-1.1,0.3-1.2,0.2c-0.1-0.2-0.1-0.5-0.2-0.7c-0.1-0.2-0.3-0.3-0.4-0.5c-0.1-0.2-0.2-0.4-0.3-0.6 c-0.1-0.2-0.2-0.4-0.4-0.6c-0.2-0.2-0.4-0.2-0.6-0.4c-0.2-0.2,0-0.6-0.2-0.8c-0.2-0.1-0.9,0.4-1.1,0.3c-0.2-0.1,0-0.7-0.2-0.8 c-0.2-0.1,0-0.7-0.1-0.9c-0.1-0.1-0.4-0.2-0.6-0.3c-0.2-0.1-0.5,0-0.7-0.2c-0.2-0.2-0.3-0.4-0.5-0.5c-0.2-0.1-0.4-0.2-0.6-0.3 s-0.5,0-0.7-0.1c-0.2-0.1-0.2-0.5-0.4-0.6c-0.2-0.1-0.3-0.4-0.5-0.5c-0.2-0.1-0.7,0.3-0.9,0.2c-0.2-0.1-0.5,0-0.7-0.1 s0-0.9-0.2-1s-0.5,0-0.7-0.1c-0.2-0.1-0.3-0.5-0.5-0.6s-0.5,0-0.7-0.1c-0.2-0.1-0.4-0.1-0.6-0.2s-0.2-0.7-0.4-0.8 c-0.2-0.1-0.5,0.1-0.7,0s-0.4-0.3-0.6-0.4c-0.2-0.1-0.7,0.5-0.9,0.5c-0.2-0.1-0.1-0.9-0.4-1c-0.2,0-0.7,0.8-0.9,0.8 c-0.2-0.1-0.4-0.3-0.6-0.4s-0.4-0.3-0.6-0.3c-0.2-0.1-0.4-0.2-0.6-0.3c-0.2-0.1-0.4-0.4-0.6-0.5c-0.2-0.1-0.5,0.1-0.7,0 c-0.2-0.1-0.4-0.5-0.6-0.5s-0.6,0.8-0.8,0.8c-0.2,0-0.3-0.9-0.5-0.9c-0.2,0-0.5,0.4-0.7,0.4c-0.2,0-0.5,0.2-0.7,0.1 s-0.3-0.9-0.6-0.9s-0.5,0.6-0.7,0.6c-0.2,0-0.4,0-0.7,0s-0.4-0.6-0.6-0.6c-0.2,0-0.5,0.6-0.7,0.6c-0.2,0-0.4-0.5-0.7-0.5 s-0.4-0.1-0.7-0.1s-0.4,0.2-0.7,0.2s-0.5-0.2-0.7-0.2s-0.4,1.1-0.6,1.1s-0.5-0.9-0.7-0.9c-0.2,0-0.5,0-0.7,0s-0.5,0-0.7,0 s-0.3,1.1-0.5,1.1s-0.6-0.8-0.8-0.8s-0.3,0.8-0.5,0.8c-0.2,0-0.6-0.8-0.8-0.8s-0.3,0.6-0.6,0.6c-0.2,0-0.4,0.2-0.6,0.2 s-0.4,0.2-0.6,0.3c-0.2,0.1-0.4,0.3-0.6,0.4c-0.2,0.1-0.6-0.7-0.9-0.6c-0.2,0.1-0.5,0.1-0.7,0.1c-0.2,0.1-0.3,0.6-0.5,0.7 c-0.2,0.1-0.4,0.1-0.7,0.1c-0.2,0.1-0.2,0.7-0.4,0.8s-0.6-0.3-0.8-0.2s-0.5-0.1-0.7,0s-0.2,0.7-0.4,0.8 c-0.2,0.1-0.6-0.2-0.8-0.1l-0.6,0.3c-0.2,0.1-0.3,0.4-0.5,0.5c-0.2,0.1-0.8-0.6-1-0.5s-0.3,0.5-0.4,0.6l-0.6,0.3 c-0.2,0.1,0,0.9-0.2,1s-0.9-0.8-1.1-0.7c-0.2,0.1,0.2,1.2,0,1.3s-0.4,0.3-0.5,0.4c-0.2,0.1-0.5,0-0.7,0.1l-0.6,0.4 c-0.2,0.1-0.8-0.4-1-0.3c-0.2,0.1,0,0.7-0.2,0.9c-0.2,0.1-0.3,0.4-0.4,0.5s-0.7-0.2-0.9,0c-0.2,0.2-0.2,0.5-0.4,0.6 c-0.2,0.1-0.3,0.4-0.4,0.5s-0.1,0.6-0.2,0.7c-0.2,0.1-0.9-0.4-1.1-0.2c-0.1,0.1-0.3,0.4-0.4,0.5c-0.2,0.1,0.2,0.8,0,1 c-0.2,0.2-0.9-0.3-1.1-0.2s0,0.7-0.1,0.8c-0.1,0.2-0.6,0.1-0.7,0.2c-0.2,0.2,0.2,0.8,0.1,1c-0.1,0.2-1-0.3-1.2-0.2 c-0.1,0.2,0,0.6-0.1,0.8c-0.1,0.2-0.5,0.2-0.6,0.4c-0.1,0.2,0.3,0.8,0.1,0.9c-0.1,0.1-0.8,0-0.9,0.1c-0.2,0.1,0.2,0.7,0,0.9 c-0.2,0.2-0.3,0.3-0.4,0.5c-0.1,0.2,0,0.5-0.2,0.7s-0.8,0-0.9,0.2c-0.1,0.2,0.3,0.8,0.2,0.9c-0.1,0.2-1.1-0.2-1.2,0 c-0.1,0.2-0.1,0.5-0.3,0.6c-0.1,0.2-0.3,0.4-0.4,0.6s-0.4,0.3-0.5,0.5s0.4,0.7,0.3,0.9s-0.4,0.3-0.5,0.5 c-0.1,0.2-0.2,0.4-0.3,0.6s-0.7,0.2-0.8,0.4c-0.1,0.2,0.9,0.9,0.8,1.2c-0.1,0.2-0.2,0.4-0.3,0.6c-0.1,0.2-0.5,0.3-0.6,0.5 c-0.1,0.2-0.1,0.4-0.2,0.6c-0.1,0.2-0.7,0.2-0.8,0.4c-0.1,0.2,0.4,0.7,0.3,0.9s-0.8,0.2-0.9,0.4s0.1,0.5,0,0.7 c-0.1,0.2-0.6,0.3-0.7,0.5s0.7,0.7,0.6,0.9c-0.1,0.2,0.1,0.5,0,0.7c-0.1,0.2-0.4,0.3-0.5,0.5c-0.1,0.2-0.7,0.3-0.7,0.5 c-0.1,0.2,0.1,0.5,0.1,0.7c-0.1,0.2,0.2,0.5,0.1,0.7c-0.1,0.2-0.1,0.4-0.1,0.7c0,0.2-0.7,0.3-0.7,0.5c0,0.2,0.3,0.5,0.2,0.7 c0,0.2,0.1,0.5,0.1,0.7c0,0.2,0.3,0.5,0.2,0.7c0,0.2-0.3,0.4-0.3,0.6c0,0.2,0,0.4,0,0.7s-0.7,0.4-0.8,0.6s0.1,0.5,0.1,0.7 s-0.5,0.4-0.5,0.6s1.1,0.5,1.1,0.8c0,0.2-1.2,0.4-1.2,0.6c0,0.2,0.2,0.5,0.2,0.7c0,0.2,0.3,0.5,0.3,0.7c0,0.2,0,0.4,0,0.7 s0.2,0.4,0.2,0.7c0,0.2,0.1,0.4,0.2,0.7c0,0.2,0.4,0.4,0.4,0.7c0,0.2-0.8,0.5-0.8,0.7c0,0.2,0.5,0.4,0.6,0.6s-0.3,0.5-0.3,0.7 c0,0.2-0.5,0.5-0.5,0.7s0.9,0.3,0.9,0.6s-0.1,0.5-0.1,0.7c0,0.2-0.1,0.5-0.1,0.7c0,0.2,0.4,0.4,0.4,0.6c0,0.2,0.2,0.4,0.3,0.6 c0,0.2-0.3,0.5-0.3,0.7c0,0.2,0.7,0.3,0.8,0.5c0,0.2-0.6,0.6-0.5,0.8c0.1,0.2-0.3,0.5-0.2,0.8c0.1,0.2,0.1,0.5,0.1,0.7 c0.1,0.2,0.3,0.4,0.4,0.6c0.1,0.2,0.6,0.3,0.7,0.5s-0.4,0.6-0.3,0.8c0.1,0.2,1.1,0.1,1.2,0.3c0.1,0.2,0.1,0.4,0.2,0.6 c0.1,0.2-0.1,0.5,0,0.7s0.2,0.4,0.3,0.6s-0.4,0.7-0.3,0.9c0.1,0.2,0.9,0.1,1,0.3s-0.2,0.6-0.1,0.8s0.4,0.3,0.5,0.5 c0.1,0.2-0.5,0.8-0.4,1s0.2,0.4,0.3,0.6c0.1,0.2,0.7,0.1,0.8,0.3c0.1,0.2-0.3,0.7-0.1,0.9c0.1,0.2,0.4,0.3,0.5,0.5 C175.7,236.1,176,236.4,176.1,236.6z"></path> <path class="st0" d="M327.5,249c0-33.1-26.9-60-60-60c-33.1,0-60,26.9-60,60c0,0,0,0,0,0v33.9h119.8L327.5,249z"></path> <path class="st10" d="M299.7,354.5v-3.6c-9,9-20,13.9-26.5,16.1c-3.7,1.3-7.7,1.3-11.4,0c-6.5-2.3-17.5-7.1-26.5-16.1v3.6 c0,8.3-4.7,15.8-12.1,19.6l0,0c9,7.3,19.3,13,30.3,16.9c9.1,3.1,18.9,3.1,28,0c11-3.8,21.3-9.6,30.3-16.9l0,0 C304.4,370.3,299.7,362.8,299.7,354.5z"></path> <path class="st11" d="M374.8,405.7l-63-31.6l0,0c-9.1,7.3-19.3,13-30.3,16.9c-9.1,3.1-18.9,3.1-28,0 c-11-3.8-21.3-9.6-30.3-16.9l-63,31.6c-8.9,4.5-14.5,13.5-14.5,23.5v36.9h243.5v-36.9C389.3,419.2,383.7,410.2,374.8,405.7z"></path> <path class="st12" d="M327.2,279.6c-1.5-0.5-3.2,0-5.1,1.3c0.6-2.2-5-40.2-5-40.2c-1.5-6.3-6.9-11.1-13.4-11.8l-29.7-3.5 c-4.4-0.5-8.8-0.5-13.2,0l-29.7,3.5c-6.5,0.8-11.8,5.5-13.4,11.8c0,0-5.6,38.1-5,40.2c-1.9-1.3-3.6-1.9-5.1-1.3 c-4.6,1.7-4.6,13.3,0.1,25.9c3.6,9.5,8.8,16.8,13.1,19.1c5.2,27.2,29.5,38.6,40.7,42.5c3.7,1.3,7.7,1.3,11.4,0 c11.2-3.9,35.5-15.3,40.7-42.5c4.3-2.2,9.6-9.5,13.2-19.1C331.8,292.9,331.8,281.3,327.2,279.6z"></path> <line class="st13" x1="267.5" y1="236" x2="267.5" y2="204.1"></line> </g> </g> </g> <g> <defs> <rect id="SVGID_00000022524975712504187600000006269610949234408883_" x="24.2" y="85" width="556" height="457"></rect> </defs> <clipPath id="SVGID_00000035506694583105928170000012663209327856809632_"> <use xlink:href="#SVGID_00000022524975712504187600000006269610949234408883_" style="overflow:visible;"></use> </clipPath> <g style="clip-path:url(#SVGID_00000035506694583105928170000012663209327856809632_);"> <g> <defs> <path id="SVGID_00000098223218041666298310000005169560819942649518_" d="M39.6,88.8c-6.9,0-12.5,5.6-12.5,12.5v426.5 c0,6.9,5.6,12.5,12.5,12.5H498c6.9,0,12.5-5.6,12.5-12.5V247.2l66.8-76.2h-66.8v-69.8c0-6.9-5.6-12.5-12.5-12.5H39.6z"></path> </defs> <clipPath id="SVGID_00000026865417865291847890000013969932865259405963_"> <use xlink:href="#SVGID_00000098223218041666298310000005169560819942649518_" style="overflow:visible;"></use> </clipPath> <path style="clip-path:url(#SVGID_00000026865417865291847890000013969932865259405963_);fill:#998BB3;" d="M286.4,648.8 l-68.3-26.3l-9.9-4.8c-20.3-9.9-30.2-32.5-23.5-53.2l-7.2-2.9c-23.6-9.6-36.7-34.2-31.1-58.1l-15.4-16.2 c-7.7-8.2-10.3-19.7-6.5-30l8-22.1L107.7,404c-7-8.8-6.8-21,0.5-29.3c8.1-9.2,22.2-10.7,32.5-3.4l39.3,27.9 c0,0,93.2,47.5,169.3,39.5c48.8-5.1,32.9-82.2,37.3-123.2c2.6-5.2,22.4-3.7,26.3,0.7c17.2,19.1,30.9,89.1,24.6,138.7 c-8.2,64.3-14.3,52.4-6.8,88.8c7.5,36.4,116.1,240.1,119.2,300.2c1.8,35.8-60.5,36.4-82.5,36.4c-21.9,0-94.2-28-94.2-28 S344.4,682.3,286.4,648.8"></path> </g> </g> </g> </g> </g> <g> <g> <g> <defs> <rect id="SVGID_00000171704346597758973850000013340182105582142873_" x="165.8" y="356.5" width="41.1" height="36.6"></rect> </defs> <clipPath id="SVGID_00000180368891036752835830000018040815905148295579_"> <use xlink:href="#SVGID_00000171704346597758973850000013340182105582142873_" style="overflow:visible;"></use> </clipPath> <g style="clip-path:url(#SVGID_00000180368891036752835830000018040815905148295579_);"> <g> <defs> <rect id="SVGID_00000124845535390501603680000013035592786423221941_" x="165.8" y="356.5" width="41.1" height="36.6"></rect> </defs> <clipPath id="SVGID_00000039836326930475577410000001457118597707739278_"> <use xlink:href="#SVGID_00000124845535390501603680000013035592786423221941_" style="overflow:visible;"></use> </clipPath> <path style="clip-path:url(#SVGID_00000039836326930475577410000001457118597707739278_);fill:#C85A60;" d="M203.5,376.3 L187,392.9c-0.2,0.2-0.4,0.3-0.6,0.3s-0.5-0.1-0.6-0.3l-16.5-16.5c-4.5-4.5-4.5-11.9,0-16.4c4.5-4.5,11.9-4.5,16.4,0 c0.3,0.3,0.5,0.5,0.7,0.8c0.2-0.3,0.5-0.5,0.7-0.8c4.5-4.5,11.9-4.5,16.4,0C208,364.4,208,371.8,203.5,376.3"></path> </g> </g> </g> </g> </g> <g> <g> <g> <defs> <rect id="SVGID_00000031183009186621434860000017536547674048422326_" x="138.7" y="282.4" width="51.7" height="46.1"></rect> </defs> <clipPath id="SVGID_00000040545523421192529680000005739356924004357787_"> <use xlink:href="#SVGID_00000031183009186621434860000017536547674048422326_" style="overflow:visible;"></use> </clipPath> <g style="clip-path:url(#SVGID_00000040545523421192529680000005739356924004357787_);"> <g> <defs> <rect id="SVGID_00000131364690986047307890000005383191628939474606_" x="138.7" y="282.4" width="51.7" height="46.1"></rect> </defs> <clipPath id="SVGID_00000079472151833450108810000002008077260295477683_"> <use xlink:href="#SVGID_00000131364690986047307890000005383191628939474606_" style="overflow:visible;"></use> </clipPath> <path style="clip-path:url(#SVGID_00000079472151833450108810000002008077260295477683_);fill:#C85A60;" d="M186.1,307.4 l-20.8,20.8c-0.2,0.2-0.5,0.3-0.8,0.3c-0.3,0-0.6-0.1-0.8-0.3L143,307.4c-5.7-5.7-5.7-15,0-20.7c5.7-5.7,15-5.7,20.7,0 c0.3,0.3,0.6,0.6,0.9,1c0.3-0.4,0.6-0.7,0.9-1c5.7-5.7,15-5.7,20.7,0C191.8,292.4,191.8,301.7,186.1,307.4"></path> </g> </g> </g> </g> </g> <g> <g> <g> <defs> <rect id="SVGID_00000150060501542410739220000016207086150156372357_" x="111.3" y="220.1" width="41.1" height="36.6"></rect> </defs> <clipPath id="SVGID_00000139288575736131481270000001931980715747181984_"> <use xlink:href="#SVGID_00000150060501542410739220000016207086150156372357_" style="overflow:visible;"></use> </clipPath> <g style="clip-path:url(#SVGID_00000139288575736131481270000001931980715747181984_);"> <g> <defs> <rect id="SVGID_00000058578427157624968750000008146054074259508393_" x="111.3" y="220.1" width="41.1" height="36.6"></rect> </defs> <clipPath id="SVGID_00000139994911490897373660000010067653787342577333_"> <use xlink:href="#SVGID_00000058578427157624968750000008146054074259508393_" style="overflow:visible;"></use> </clipPath> <path style="clip-path:url(#SVGID_00000139994911490897373660000010067653787342577333_);fill:#C85A60;" d="M149,239.9 l-16.5,16.5c-0.2,0.2-0.4,0.3-0.6,0.3s-0.5-0.1-0.6-0.3l-16.5-16.5c-4.5-4.5-4.5-11.9,0-16.4c4.5-4.5,11.9-4.5,16.4,0 c0.3,0.3,0.5,0.5,0.7,0.8c0.2-0.3,0.5-0.5,0.7-0.8c4.5-4.5,11.9-4.5,16.4,0C153.5,228,153.5,235.4,149,239.9"></path> </g> </g> </g> </g> </g> <g> <g> <g> <defs> <rect id="SVGID_00000142859439974152413800000013749883017543117742_" x="145.5" y="162.4" width="55" height="49"></rect> </defs> <clipPath id="SVGID_00000150800312495729185300000014925559592466238117_"> <use xlink:href="#SVGID_00000142859439974152413800000013749883017543117742_" style="overflow:visible;"></use> </clipPath> <g style="clip-path:url(#SVGID_00000150800312495729185300000014925559592466238117_);"> <g> <defs> <rect id="SVGID_00000132792999802128202710000000318344280844407485_" x="145.5" y="162.4" width="55" height="49"></rect> </defs> <clipPath id="SVGID_00000083057598982085256580000009138179124159903363_"> <use xlink:href="#SVGID_00000132792999802128202710000000318344280844407485_" style="overflow:visible;"></use> </clipPath> </g> </g> </g> </g> </g> <g> <g> <g> <defs> <rect id="SVGID_00000144328161795802935490000009253788394921227195_" x="174.7" y="106.7" width="41.1" height="36.6"></rect> </defs> <clipPath id="SVGID_00000077301621900638757890000004060841641123735723_"> <use xlink:href="#SVGID_00000144328161795802935490000009253788394921227195_" style="overflow:visible;"></use> </clipPath> <g style="clip-path:url(#SVGID_00000077301621900638757890000004060841641123735723_);"> <g> <defs> <rect id="SVGID_00000150084469697258937400000011654730282094163111_" x="174.7" y="106.7" width="41.1" height="36.6"></rect> </defs> <clipPath id="SVGID_00000093165220498492317710000004955185477022113412_"> <use xlink:href="#SVGID_00000150084469697258937400000011654730282094163111_" style="overflow:visible;"></use> </clipPath> <path style="clip-path:url(#SVGID_00000093165220498492317710000004955185477022113412_);fill:#C85A60;" d="M212.5,126.5 L195.9,143c-0.2,0.2-0.4,0.3-0.6,0.3s-0.5-0.1-0.6-0.3l-16.5-16.5c-4.5-4.5-4.5-11.9,0-16.4s11.9-4.5,16.4,0 c0.3,0.3,0.5,0.5,0.7,0.8c0.2-0.3,0.5-0.5,0.7-0.8c4.5-4.5,11.9-4.5,16.4,0C217,114.6,217,122,212.5,126.5"></path> </g> </g> </g> </g> </g> <g> <g> <g> <defs> <rect id="SVGID_00000136378774186437146410000013128456761365490844_" x="131.9" y="28.1" width="56.3" height="50.2"></rect> </defs> <clipPath id="SVGID_00000129175752957571644150000008856120643877977773_"> <use xlink:href="#SVGID_00000136378774186437146410000013128456761365490844_" style="overflow:visible;"></use> </clipPath> <g style="clip-path:url(#SVGID_00000129175752957571644150000008856120643877977773_);"> <g> <defs> <rect id="SVGID_00000090285031226370145450000001251161152218231432_" x="131.9" y="28.1" width="56.3" height="50.2"></rect> </defs> <clipPath id="SVGID_00000178196846067094145650000012669190998698794388_"> <use xlink:href="#SVGID_00000090285031226370145450000001251161152218231432_" style="overflow:visible;"></use> </clipPath> <path style="clip-path:url(#SVGID_00000178196846067094145650000012669190998698794388_);fill:#C85A60;" d="M183.5,55.3 l-22.6,22.6c-0.2,0.2-0.6,0.4-0.9,0.4s-0.6-0.1-0.9-0.4l-22.6-22.6c-6.2-6.2-6.2-16.3,0-22.5s16.3-6.2,22.5,0 c0.4,0.4,0.7,0.7,1,1.1c0.3-0.4,0.6-0.7,1-1.1c6.2-6.2,16.3-6.2,22.5,0C189.7,38.9,189.7,49.1,183.5,55.3"></path> </g> </g> </g> </g> </g> <g> <g> <g> <defs> <rect id="SVGID_00000091713613662740249230000017371724718204647050_" x="97.6" y="85" width="41.1" height="36.6"></rect> </defs> <clipPath id="SVGID_00000099625352455050360320000011772695195819179144_"> <use xlink:href="#SVGID_00000091713613662740249230000017371724718204647050_" style="overflow:visible;"></use> </clipPath> <g style="clip-path:url(#SVGID_00000099625352455050360320000011772695195819179144_);"> <g> <defs> <rect id="SVGID_00000034781221461410866060000015184187707770111617_" x="97.6" y="85" width="41.1" height="36.6"></rect> </defs> <clipPath id="SVGID_00000069383262622188386530000017864733941709781163_"> <use xlink:href="#SVGID_00000034781221461410866060000015184187707770111617_" style="overflow:visible;"></use> </clipPath> <path style="clip-path:url(#SVGID_00000069383262622188386530000017864733941709781163_);fill:#C85A60;" d="M135.3,104.9 l-16.5,16.5c-0.2,0.2-0.4,0.3-0.6,0.3s-0.5-0.1-0.6-0.3L101,104.9c-4.5-4.5-4.5-11.9,0-16.4c4.5-4.5,11.9-4.5,16.4,0 c0.3,0.3,0.5,0.5,0.7,0.8c0.2-0.3,0.5-0.5,0.7-0.8c4.5-4.5,11.9-4.5,16.4,0C139.9,93,139.9,100.4,135.3,104.9"></path> </g> </g> </g> </g> </g> </g> <path class="st29" d="M168.4,179l-22.1,22.1c-0.2,0.2-0.5,0.3-0.8,0.3c-0.3,0-0.6-0.1-0.8-0.3L122.5,179c-6.1-6.1-6.1-15.9,0-22 c6.1-6.1,15.9-6.1,22,0c0.3,0.3,0.7,0.7,1,1.1c0.3-0.4,0.6-0.7,1-1.1c6.1-6.1,15.9-6.1,22,0C174.5,163,174.5,172.9,168.4,179"></path> </svg> 