<?xml version="1.0" encoding="UTF-8"?> <!-- Generator: Adobe Illustrator 26.2.0, SVG Export Plug-In . SVG Version: 6.00 Build 0) --> <svg xmlns="http://www.w3.org/2000/svg" xmlns:xlink="http://www.w3.org/1999/xlink" version="1.1" id="Livello_1" x="0px" y="0px" viewBox="0 0 540 540" style="enable-background:new 0 0 540 540;" xml:space="preserve"> <style type="text/css"> .st0{fill:#543E81;} .st1{clip-path:url(#SVGID_00000036951060725448196530000010709405964763854483_);} .st2{fill:url(#SVGID_00000111190180314526033300000009506873151133769866_);} .st3{fill:url(#SVGID_00000122717726288751846700000004388759204585678720_);} .st4{fill:url(#SVGID_00000012445983134103301200000005957506195147137715_);} .st5{fill:url(#SVGID_00000077301031579715559030000016240071942769506690_);} .st6{fill:url(#SVGID_00000151530905283184677980000001024455612292729761_);} .st7{fill:#FFFFFF;} .st8{fill:#766499;} .st9{fill:#EFECF3;} .st10{fill:#DDD8E6;} .st11{fill:#BBB1CC;} .st12{fill:#183059;} .st13{fill:#FCBB47;} .st14{fill:#FBA919;} .st15{fill:#43597A;} .st16{fill:#988BB3;} .st17{fill:#72839B;} .st18{fill:#FCCC75;} </style> <g id="BG"> <rect class="st0" width="540" height="540"></rect> </g> <g id="e"> <g id="f"> <g> <g> <defs> <path id="SVGID_1_" d="M219.6,73.1l42-27.3c11.8-7.7,27.6-4.3,35.3,7.5l27.3,42c7.7,11.8,4.3,27.6-7.5,35.3l-42,27.3 c-11.8,7.7-27.6,4.3-35.3-7.5l-27.3-42C204.4,96.6,207.8,80.8,219.6,73.1z"></path> </defs> <clipPath id="SVGID_00000050643339785938261440000006151116847988989859_"> <use xlink:href="#SVGID_1_" style="overflow:visible;"></use> </clipPath> <g style="clip-path:url(#SVGID_00000050643339785938261440000006151116847988989859_);"> <g> <radialGradient id="SVGID_00000003066511127097535770000008282282464373725318_" cx="779.2786" cy="2509.2449" r="110.3831" gradientTransform="matrix(0.4193 -0.2724 0.2724 0.4193 -765.6247 -749.142)" gradientUnits="userSpaceOnUse"> <stop offset="9.000000e-02" style="stop-color:#FA8F21"></stop> <stop offset="0.78" style="stop-color:#D82D7E"></stop> </radialGradient> <path style="fill:url(#SVGID_00000003066511127097535770000008282282464373725318_);" d="M250.4,112.2 c-6.3-9.7-3.5-22.7,6.2-29c9.7-6.3,22.7-3.5,29,6.2s3.5,22.7-6.2,29l0,0C269.7,124.6,256.7,121.9,250.4,112.2L250.4,112.2"></path> <radialGradient id="SVGID_00000150088423351975972990000012704117042467517856_" cx="370.4888" cy="1610.6664" r="170.0395" gradientTransform="matrix(0.8386 -0.5447 0.5447 0.8386 -919.7073 -1207.0962)" gradientUnits="userSpaceOnUse"> <stop offset="9.000000e-02" style="stop-color:#FA8F21"></stop> <stop offset="0.78" style="stop-color:#D82D7E"></stop> </radialGradient> <path style="fill:url(#SVGID_00000150088423351975972990000012704117042467517856_);" d="M240.9,118.3 c9.7,14.9,29.7,19.2,44.6,9.5s19.2-29.7,9.5-44.6c-9.7-14.9-29.7-19.2-44.6-9.5C235.5,83.4,231.2,103.4,240.9,118.3 L240.9,118.3"></path> <radialGradient id="SVGID_00000170974539025878235130000005598643008701508501_" cx="341.9585" cy="1571.446" r="271.4765" gradientTransform="matrix(0.8386 -0.5447 0.5447 0.8386 -919.7073 -1207.0962)" gradientUnits="userSpaceOnUse"> <stop offset="9.000000e-02" style="stop-color:#FA8F21"></stop> <stop offset="0.78" style="stop-color:#D82D7E"></stop> </radialGradient> <path style="fill:url(#SVGID_00000170974539025878235130000005598643008701508501_);" d="M274.6,157.5 c-5.3,3.1-8.6,4-10.9,4.6c-5.7,1.2-11.7-0.1-16.5-3.5c-1.9-1.4-4.6-3.6-8.1-8.6c-3.9-5.4-5-7-14.1-21.1s-10.2-15.8-13.5-21.5 c-3.1-5.3-4-8.6-4.6-10.9c-1.2-5.7,0.1-11.7,3.5-16.5c1.4-1.9,3.6-4.6,8.6-8.1c5.4-3.9,7-5,21.1-14.1s15.8-10.2,21.5-13.5 c5.3-3.1,8.6-4,10.9-4.6c5.7-1.2,11.7,0.1,16.5,3.5c1.9,1.4,4.6,3.6,8.1,8.6c3.9,5.4,5,7,14.1,21.1s10.2,15.8,13.5,21.5 c3.1,5.3,4,8.6,4.6,10.9c1.2,5.7-0.1,11.7-3.5,16.5c-1.4,1.9-3.6,4.6-8.6,8.1c-5.4,3.9-7,5-21.1,14.1 C282,153.1,280.2,154.1,274.6,157.5"></path> <radialGradient id="SVGID_00000085937333845460969910000004049162411065053112_" cx="717.1949" cy="3314.4822" r="331.1411" gradientTransform="matrix(0.4193 -0.2724 -0.2724 -0.4193 861.9743 1756.6156)" gradientUnits="userSpaceOnUse"> <stop offset="9.000000e-02" style="stop-color:#FA8F21"></stop> <stop offset="0.78" style="stop-color:#D82D7E"></stop> </radialGradient> <path style="fill:url(#SVGID_00000085937333845460969910000004049162411065053112_);" d="M212.2,62.5 c-5.4,3.9-8.7,7.3-11.2,10.8c-5.3,7.3-7.2,16.6-5.4,25.4c0.9,4.2,2.5,8.6,5.9,14.4c3.4,5.8,4.5,7.6,13.8,21.9 s10.5,16.1,14.4,21.5c3.9,5.4,7.3,8.7,10.8,11.2c7.3,5.3,16.6,7.2,25.4,5.4c4.2-0.9,8.6-2.5,14.4-5.9 c5.8-3.4,7.6-4.5,21.9-13.8c14.3-9.3,16.1-10.5,21.5-14.4c5.4-3.9,8.7-7.3,11.2-10.8c5.3-7.3,7.2-16.6,5.4-25.4 c-0.9-4.2-2.5-8.6-5.9-14.4c-3.4-5.8-4.5-7.6-13.8-21.9s-10.5-16.1-14.4-21.5c-3.9-5.4-7.3-8.7-10.8-11.2 c-7.3-5.3-16.6-7.2-25.4-5.4c-4.2,0.9-8.6,2.5-14.4,5.9c-5.8,3.4-7.6,4.5-21.9,13.8S217.7,58.6,212.2,62.5"></path> <radialGradient id="SVGID_00000041291116138819839340000000177404191758367650_" cx="837.3279" cy="3303.1169" r="260.9832" gradientTransform="matrix(0.4193 -0.2724 -0.2724 -0.4193 861.9743 1756.6156)" gradientUnits="userSpaceOnUse"> <stop offset="0.64" style="stop-color:#8C3AAA;stop-opacity:0"></stop> <stop offset="1" style="stop-color:#8C3AAA"></stop> </radialGradient> <path style="fill:url(#SVGID_00000041291116138819839340000000177404191758367650_);" d="M212.2,62.5 c-5.4,3.9-8.7,7.3-11.2,10.8c-5.3,7.3-7.2,16.6-5.4,25.4c0.9,4.2,2.5,8.6,5.9,14.4c3.4,5.8,4.5,7.6,13.8,21.9 s10.5,16.1,14.4,21.5c3.9,5.4,7.3,8.7,10.8,11.2c7.3,5.3,16.6,7.2,25.4,5.4c4.2-0.9,8.6-2.5,14.4-5.9 c5.8-3.4,7.6-4.5,21.9-13.8c14.3-9.3,16.1-10.5,21.5-14.4c5.4-3.9,8.7-7.3,11.2-10.8c5.3-7.3,7.2-16.6,5.4-25.4 c-0.9-4.2-2.5-8.6-5.9-14.4c-3.4-5.8-4.5-7.6-13.8-21.9s-10.5-16.1-14.4-21.5c-3.9-5.4-7.3-8.7-10.8-11.2 c-7.3-5.3-16.6-7.2-25.4-5.4c-4.2,0.9-8.6,2.5-14.4,5.9c-5.8,3.4-7.6,4.5-21.9,13.8S217.7,58.6,212.2,62.5"></path> </g> </g> </g> <g> <path class="st7" d="M293.1,65.5c-2.5-3.5-4.7-5.7-7-7.3c-4.8-3.5-10.8-4.7-16.5-3.5c-2.7,0.6-5.6,1.6-9.4,3.8 c-3.8,2.2-5,2.9-14.3,9c-9.3,6.1-10.5,6.8-14.1,9.4c-3.5,2.5-5.7,4.7-7.3,7c-3.5,4.8-4.7,10.8-3.5,16.5c0.6,2.7,1.6,5.6,3.8,9.4 c2.2,3.8,2.9,5,9,14.3c6.1,9.3,6.8,10.5,9.4,14.1c2.6,3.6,4.7,5.7,7,7.3c4.8,3.5,10.8,4.7,16.5,3.6c2.7-0.6,5.6-1.6,9.4-3.8 c3.8-2.2,5-2.9,14.3-9c9.3-6.1,10.5-6.8,14.1-9.4c3.5-2.5,5.7-4.7,7.3-7c3.5-4.8,4.7-10.8,3.5-16.6c-0.6-2.7-1.6-5.6-3.8-9.4 c-2.2-3.8-2.9-5-9-14.3C296.4,70.2,295.6,69.1,293.1,65.5L293.1,65.5z M305.1,97.6c2,3.5,2.6,5.6,3,7.2 c0.8,3.7-0.1,7.6-2.3,10.7c-0.9,1.3-2.4,3-5.6,5.3c-3.5,2.5-4.6,3.3-13.7,9.2c-9.1,5.9-10.3,6.6-14,8.8c-3.5,2-5.6,2.6-7.2,3 c-1.9,0.4-3.7,0.4-5.6,0c-1.9-0.3-3.6-1.1-5.1-2.3c-1.3-0.9-3-2.4-5.3-5.6c-2.5-3.5-3.3-4.6-9.2-13.7c-5.9-9.1-6.6-10.3-8.8-14 c-2-3.5-2.6-5.6-3-7.2c-0.8-3.7,0.1-7.6,2.3-10.7c0.9-1.3,2.4-3,5.6-5.3c3.5-2.5,4.6-3.3,13.7-9.2c9.1-5.9,10.3-6.6,14-8.8 c3.5-2,5.6-2.6,7.2-3c3.7-0.8,7.6,0.1,10.7,2.3c1.3,0.9,3,2.4,5.3,5.6c2.5,3.5,3.3,4.6,9.2,13.7 C302.2,92.8,302.9,93.9,305.1,97.6L305.1,97.6L305.1,97.6z"></path> <path class="st7" d="M271.9,67.5L271.9,67.5c-2.3,1.5-2.9,4.5-1.4,6.8c1.5,2.3,4.5,2.9,6.8,1.4c2.3-1.5,2.9-4.5,1.4-6.8 c-0.3-0.4-0.7-0.8-1-1.1C276,66.4,273.6,66.3,271.9,67.5L271.9,67.5z"></path> <path class="st7" d="M257,84c-9.8,6.1-12.9,19.1-6.7,29c6.1,9.9,19.1,12.9,29,6.7c9.9-6.1,12.9-19.1,6.7-29l-0.4-0.7 C279.2,80.7,266.6,78,257,84L257,84z M276.2,112.9c-6.1,4.4-14.7,3.1-19.1-3c-4.4-6.1-3.1-14.7,3-19.1c6.1-4.4,14.7-3.1,19.1,3 c0.3,0.4,0.6,0.8,0.8,1.3C283.5,101.1,281.8,108.8,276.2,112.9L276.2,112.9z"></path> </g> </g> </g> <ellipse transform="matrix(1 -1.568350e-03 1.568350e-03 1 -0.1503 0.539)" class="st8" cx="343.6" cy="96.1" rx="23.7" ry="23.7"></ellipse> <path class="st9" d="M349.4,87c-2-0.4-4.1,0.2-5.6,1.7c-2.2-2.6-6.1-2.8-8.6-0.6c-2.3,2-2.7,5.4-1.1,8l8.4,9.2 c0.2,0.2,0.6,0.3,0.8,0l9.4-8.2c2.2-2.6,1.9-6.4-0.5-8.7C351.4,87.7,350.5,87.3,349.4,87L349.4,87z"></path> </g> <polygon class="st10" points="271.9,275.4 341.8,148 201.9,148 "></polygon> <rect x="258" y="235.9" class="st10" width="27.7" height="62.2"></rect> <path class="st11" d="M328.7,268.2c3.6,0.3,7.2-0.6,10.3-2.5l-0.7-0.6c-0.2-0.1-0.3-0.3-0.4-0.5c-0.6-0.8-0.4-1.9,0.4-2.4 c0.1-0.1,0.2-0.1,0.3-0.2c6.9-3.1,10-11.1,6.9-18s-11.1-10-18-6.9c-1.1,0.5-2.1,1.1-3,1.9c-1.1,0.9-1.9,2.2-2.3,3.5l-0.9,3.1 c-0.2,0.6,0,1.3,0.4,1.8l0.1,0.1c0.4,0.4,0.4,1,0,1.4l-0.8,0.9c-0.2,0.3-0.4,0.6-0.4,0.9l-0.8,10.6c-0.1,1.2,0.8,2.2,1.9,2.3 c0,0,0,0,0.1,0l1.4,0.1c0.9,0.1,1.5,0.8,1.4,1.7c0,0,0,0,0,0.1l-0.2,1.8C325.9,267.8,327.3,268.1,328.7,268.2z"></path> <path class="st12" d="M333.7,253c0,0,1.9-3.2,4-1.4c0,0,1.5,2.3-1.7,4.3c0,0,0.5,4,3.5,5.7l0,0c6.7-3.4,9.3-11.6,5.9-18.3 s-11.6-9.3-18.3-5.9c-0.9,0.4-1.7,1-2.4,1.6c-0.3,0.3-0.6,0.6-0.9,0.9C323.7,239.9,324.1,250.1,333.7,253z"></path> <path class="st13" d="M348.9,317.4c-0.8-3.4-0.8-7,0-10.4l2.5-10.4c0.8-3.2,1.1-6.5,1.1-9.7v-2.5c0-3.8-1.6-7.5-4.4-10.1l-9.8-9.1 l0.7,0.6c-3.1,1.9-6.7,2.7-10.3,2.5c-1.4-0.1-2.8-0.4-4.2-0.9l-0.1,1.4l-7.5,12.8l1.4,24c0.1,1.2-0.1,24-0.1,28.5 c0,0.4,0.3,0.8,0.8,0.8h33c0.6,0,1.1-0.5,1.1-1.1c0-0.1,0-0.2,0-0.3L348.9,317.4z"></path> <path class="st14" d="M306,266.1c0.4,1.3,1.5,2.3,2.9,2.6l13.7,3.1l1.8-3.1l0.1-1.4l0.2-1.8c0.1-0.5-0.2-1.1-0.6-1.4l-1.7-0.4h-0.5 c-0.3,0-0.6-0.1-0.9-0.3l-10.6-2.4c-1.3-0.3-2.4-1.3-2.9-2.6l-1.3-3.4h-4.5L306,266.1z"></path> <path class="st12" d="M370.5,428h-11c-2.9,8.5-11.9,10.3-15.8,10.7c-1,0.1-1.8,1-1.8,2v0.8c0,0.6,0.4,1,1,1h26.2c0.5,0,1,0,1.5-0.1 c2.3-0.3,4-2.5,3.6-4.9c0-0.3-0.1-0.7-0.3-1L370.5,428z"></path> <path class="st12" d="M333.9,428h-11c-2.9,8.5-11.9,10.3-15.8,10.7c-1,0.1-1.8,1-1.8,2v0.8c0,0.6,0.4,1,1,1h26.2c0.5,0,1,0,1.5-0.1 c2.3-0.3,4-2.5,3.6-4.8c0-0.3-0.1-0.7-0.3-1L333.9,428z"></path> <path class="st15" d="M355.6,372.4c-0.4-1.5-0.7-3-0.8-4.6l-1.8-29.1c0-1.4-0.3-2.8-0.8-4.1c-0.1,0-0.2,0-0.2,0h-30.7l7.7,19.9 l8.9,23l19.2,50.5h15.6L355.6,372.4z"></path> <path class="st15" d="M193.1,317.4c0.8-3.4,0.8-7,0-10.4l-2.5-10.4c-0.8-3.2-1.1-6.5-1.1-9.7v-2.5c0-3.8,1.6-7.5,4.4-10.1l9.8-9.1 l-0.7,0.6c3.1,1.9,6.7,2.7,10.3,2.5c1.4-0.1,2.8-0.4,4.2-0.9l0.1,1.4l7.5,12.8l-1.4,24c-0.1,1.2,0.1,24,0.1,28.5 c0,0.4-0.3,0.8-0.8,0.8h-33c-0.6,0-1.1-0.5-1.1-1.1c0-0.1,0-0.2,0-0.3L193.1,317.4z"></path> <path class="st13" d="M190,334.7c-0.1,0-0.1,0-0.2,0c-0.5,1.3-0.7,2.7-0.8,4.1l-1.8,29.1v0.3l0,0h20.6l5.3-13.6l7.7-19.9L190,334.7z "></path> <polygon class="st14" points="223.2,369.8 222.1,334.7 220.8,334.7 213.1,354.6 207.2,369.8 "></polygon> <path class="st12" d="M198.8,438.7c-3.6-0.3-11.4-1.8-14.9-8.6c-0.6-1.2-0.7-2.6-0.1-3.9l0,0c0.2-0.5,0-1.2-0.6-1.4 c-0.1-0.1-0.3-0.1-0.4-0.1h-2.3c-0.7,0-1.3,0.4-1.6,1l-0.4,0.8c-0.5,0.9-1.4,1.4-2.4,1.4h-3c-0.7,0-1.2,0.4-1.5,1l-3,7.6 c-0.9,2.2,0.2,4.7,2.4,5.6c0.3,0.1,0.6,0.2,1,0.3c0.5,0.1,1,0.1,1.5,0.1h26.2c0.6,0,1-0.4,1-1v-0.8 C200.7,439.7,199.9,438.8,198.8,438.7z"></path> <path class="st11" d="M172.4,428.1c0.2-0.1,0.4-0.1,0.6-0.1h3c1,0,1.9-0.6,2.4-1.4l0.4-0.8c0.3-0.6,0.9-1,1.6-1h2.3 c0.3,0,0.6,0.1,0.8,0.4c1.5-4.4,3-8.9,4.5-13.3l1.7-4.9c1.4-4.5,3.2-8.9,5.1-13.2c4.1-8.6,10.4-16.4,12.8-25.5h-19.6 c-0.3,10.4-11,18.8-11.4,29.4C176.7,397.9,177,418.3,172.4,428.1z"></path> <path class="st12" d="M237.3,438.7c-3.6-0.3-11.4-1.8-14.9-8.6c-0.6-1.2-0.7-2.6-0.1-3.9l0,0c0.2-0.5,0-1.2-0.5-1.4 c-0.1-0.1-0.3-0.1-0.5-0.1H219c-0.7,0-1.3,0.4-1.6,1l-0.4,0.8c-0.5,0.9-1.4,1.4-2.4,1.4h-3c-0.7,0-1.2,0.4-1.5,1l-3,7.6 c-0.9,2.2,0.2,4.7,2.4,5.6c0.3,0.1,0.6,0.2,1,0.3c0.5,0.1,1,0.1,1.5,0.1h26.2c0.6,0,1-0.4,1-1v-0.8 C239.3,439.7,238.4,438.8,237.3,438.7z"></path> <path class="st16" d="M211.6,428h3c1,0,1.9-0.6,2.4-1.4l0.4-0.8c0.3-0.6,0.9-1,1.6-1l1.9-38.3l0.8-16.8h-14.5 c-0.2,0.8-0.5,1.5-0.8,2.3c0.8,9.3-4.6,19.4-1.8,28.7c0.1,0.3,5.6,16.3,6.1,27.5C211,428.1,211.3,428,211.6,428z"></path> <path class="st11" d="M221.3,250.7c0-0.3-0.2-0.7-0.4-0.9l-0.8-0.9c-0.4-0.4-0.4-1,0-1.4l0.1-0.1c0.5-0.5,0.6-1.2,0.4-1.8l-0.9-3.1 c-0.3-1-0.8-1.9-1.5-2.7l0,0l0,0c-0.3-0.3-0.5-0.6-0.8-0.8c-5.8-4.8-14.4-3.9-19.2,1.9c-1.1,1.4-2,3-2.5,4.7 c-0.1,0.4-0.2,0.8-0.3,1.2c0,0.1,0,0.3-0.1,0.4c0,0.3-0.1,0.6-0.1,0.8s0,0.3,0,0.5s0,0.5,0,0.7c0,0.2,0,0.3,0,0.5c0,0.2,0,0.5,0,0.7 s0,0.4,0,0.5s0.1,0.4,0.1,0.7s0.1,0.4,0.1,0.5s0.1,0.4,0.1,0.6c0,0.2,0.1,0.4,0.1,0.5c0.1,0.2,0.1,0.4,0.2,0.6s0.1,0.4,0.2,0.5 s0.2,0.4,0.2,0.6s0.1,0.3,0.2,0.5s0.2,0.4,0.3,0.6s0.2,0.3,0.3,0.5s0.2,0.4,0.3,0.5s0.2,0.3,0.3,0.5s0.2,0.3,0.4,0.5l0.4,0.4 c0.1,0.1,0.3,0.3,0.4,0.5l0.4,0.4l0.5,0.4c0.1,0.1,0.3,0.2,0.4,0.4l0.5,0.4l0.5,0.3l0.6,0.3c0.2,0.1,0.3,0.2,0.5,0.3l0.1,0.1l0,0 c0.3,0.1,0.5,0.3,0.8,0.4c0.9,0.4,1.3,1.4,0.9,2.3c0,0.1-0.1,0.2-0.2,0.3c-0.1,0.2-0.3,0.3-0.4,0.5l-0.7,0.6 c3.1,1.9,6.7,2.7,10.3,2.5c1.4-0.1,2.8-0.4,4.2-0.9l-0.2-1.8c-0.1-0.9,0.5-1.6,1.4-1.7c0,0,0.1,0,0.1,0l1.4-0.1 c1.2-0.1,2.1-1.1,2-2.3c0,0,0,0,0,0L221.3,250.7z"></path> <path class="st12" d="M202.2,234.2c-3.7,2-6.4,5.6-7.3,9.8c-1,3.9-0.4,8.1,1.5,11.7c0.1,0.2,0.2,0.5,0.4,0.7 c0.7,1.4,1.7,2.7,2.8,3.8c1.5,1.7,2.5,3.9,2.6,6.3c1.1,0.1,2-0.7,2.1-1.7c0.2-2.4,0.1-4.7-0.2-7c-0.3-2-2.2-4.7,0.5-6.2 c1.6-0.9,3.5,1,4.3,2.1c-0.5-5.4,7-7,9.5-10.4C225.7,233.2,207.9,231.3,202.2,234.2z"></path> <circle class="st12" cx="196.1" cy="259.8" r="6.6"></circle> <path class="st16" d="M245.8,230.4l-3.7-5.9l-0.2,2.7c-0.1,0.3-0.1,0.7-0.1,1.1l1.4,6.1c0.1,0.6,0.1,1.2-0.1,1.7l-7.2,19l-1.3,3.5 c-0.4,1.3-1.5,2.3-2.9,2.6l-10.6,2.4l0,0c-0.3,0.2-0.6,0.3-0.9,0.3l-1.4,0.1c-0.3,0-0.6,0.1-0.8,0.3c-0.2,0.2-0.4,0.4-0.5,0.6v0.1 c0,0.1-0.1,0.2-0.1,0.3c0,0,0,0.1,0,0.1c0,0.1,0,0.3,0,0.4v0.4l0.1,1.4l0,0l0.1,1.4l1.8,3.1l2.4-0.5l11.4-2.5 c1.3-0.3,2.4-1.3,2.9-2.6l10.1-26.5l1.2-3.2l0,0L245.8,230.4z"></path> <path class="st11" d="M264,224.6L264,224.6c-0.4-0.3-0.8-0.2-1,0.1l-3.2,4.1c-0.2,0.2-0.5,0.2-0.7,0c0,0,0,0,0,0 c-0.2-0.2-0.2-0.4-0.1-0.6l3.9-7.3c0.2-0.3,0-0.7-0.3-0.9l-0.2-0.1c-0.3-0.2-0.7-0.1-0.9,0.2l-4.2,6.9c-0.1,0.2-0.5,0.3-0.7,0.2 c0,0,0,0-0.1,0l-0.2-0.1c-0.2-0.1-0.2-0.4-0.2-0.6l3.5-10.1c0.1-0.4-0.1-0.7-0.5-0.8c-0.3-0.1-0.6,0.1-0.8,0.3l-4.6,9.7 c-0.1,0.2-0.3,0.3-0.6,0.3h-0.1c-0.3-0.1-0.4-0.3-0.4-0.6l1.5-8.9c0.1-0.4-0.2-0.7-0.5-0.8l0,0c-0.3-0.1-0.7,0.1-0.8,0.4l-4.2,11.9 c-0.6,1.3-1.7,2.2-3,2.6l1.2,4.4c0.3,1.1,0.2,2.2-0.2,3.3l-5.3,14l0,0l-5.4,14c-0.4,1.3-1.5,2.3-2.9,2.6l-15,3.3v16.3l23-8.5 c2-0.9,3.6-2.6,4.2-4.7l6.9-23l0,0l3.1-10.4c0.1-0.5,0.3-0.9,0.5-1.4l3.6-7.3l4.6-7.5C264.4,225.2,264.3,224.8,264,224.6 C264,224.6,264,224.6,264,224.6z"></path> <path class="st17" d="M218.3,272l-15,3.4c-4.7,0.9-7.9,5.4-7,10.2c0.9,4.7,5.4,7.9,10.2,7c0.5-0.1,0.9-0.2,1.4-0.4l10.4-3.9 L218.3,272z"></path> <path class="st12" d="M337.9,377.5l-8.9-22.9l-7.7-19.9H320l-1.6,49.5c0,0.4,0,0.8,0,1.2l3.1,42.6h14.4l0.1-42.4 c0-0.3,0.1-0.6,0.1-0.9l1.9-6.8L337.9,377.5z"></path> <path class="st16" d="M298.9,234.3l1.8-5.9c0.1-0.4,0.1-0.8,0-1.2l-0.3-1.9l-4.7,4.5l0,0l-1,4.6c-0.2,1.3-0.1,2.6,0.4,3.8l5.6,13.8 h-0.2l1.3,2.9h4.5l-7.2-19C298.8,235.4,298.8,234.9,298.9,234.3z"></path> <path class="st18" d="M296.5,275.1c0.6,2.1,2.2,3.8,4.2,4.7l33.4,12.4c4.5,1.7,9.5-0.7,11.2-5.2s-0.7-9.5-5.2-11.2 c-0.4-0.2-0.9-0.3-1.4-0.4l-29.9-6.7c-1.3-0.3-2.4-1.3-2.9-2.6l-5.4-14.1h-11L296.5,275.1z"></path> <path class="st11" d="M289.6,252.1h11l-5.6-13.9c-0.5-1.2-0.6-2.5-0.3-3.8l0.9-4.6c-1.1-0.2-2-1-2.4-2.1l-4.2-11.9 c-0.1-0.3-0.4-0.5-0.8-0.4l0,0c-0.4,0.1-0.6,0.4-0.5,0.8l1.5,8.9c0,0.3-0.1,0.5-0.4,0.6h-0.1c-0.2,0-0.5-0.1-0.6-0.3l-4.6-9.7 c-0.2-0.3-0.6-0.4-0.9-0.3c-0.3,0.2-0.4,0.5-0.3,0.8l3.5,10.1c0.1,0.2,0,0.4-0.2,0.6l-0.2,0.1c-0.2,0.2-0.5,0.1-0.7-0.1 c0,0,0,0,0-0.1l-4.2-6.9c-0.2-0.3-0.6-0.4-0.9-0.2l-0.2,0.1c-0.3,0.2-0.4,0.6-0.3,0.9l3.9,7.3c0.1,0.2,0.1,0.4-0.1,0.6 c-0.2,0.2-0.5,0.2-0.7,0c0,0,0,0,0,0l-3.2-4.1c-0.2-0.3-0.6-0.3-0.9-0.1l-0.1,0.1c-0.3,0.2-0.4,0.6-0.2,0.9l4.6,7.5l3.6,7.3 c0.2,0.4,0.4,0.9,0.5,1.4L289.6,252.1L289.6,252.1z"></path> <path class="st14" d="M132.2,369.8c11.4,0,20,2.9,20,6.7s-8.6,6.7-20,6.7s-20-2.9-20-6.7S120.9,369.8,132.2,369.8z"></path> <path class="st7" d="M98.1,433.1c7.3,0,15.5-1.2,20-4.4v7.7c0,3.8-8.6,6.7-20,6.7c-11.4,0-20-2.9-20-6.7v-7.7 C82.6,431.8,90.9,433.1,98.1,433.1z"></path> <path class="st7" d="M98.1,419.7c7.3,0,15.5-1.2,20-4.4v7.7c0,3.8-8.6,6.7-20,6.7c-11.4,0-20-2.9-20-6.7v-7.7 C82.6,418.5,90.9,419.7,98.1,419.7z"></path> <path class="st7" d="M98.1,406.4c7.3,0,15.5-1.2,20-4.4v7.7c0,3.8-8.6,6.7-20,6.7c-11.4,0-20-2.9-20-6.7V402 C82.6,405.2,90.9,406.4,98.1,406.4z"></path> <path class="st7" d="M98.9,389.7c11.4,0,20,2.9,20,6.7s-8.6,6.7-20,6.7c-11.4,0-20-2.9-20-6.7S87.5,389.7,98.9,389.7z"></path> <path class="st14" d="M131.5,396.4c-3.4,0-6.8-0.3-10.1-0.9c-0.5-3.8-4.6-6.2-9.9-7.6v-5.9c4.4,3.1,12.6,4.4,20,4.4s15.5-1.2,20-4.4 v7.7C151.5,393.5,142.9,396.4,131.5,396.4z"></path> <path class="st14" d="M131.5,409.7c-3.4,0-6.7-0.3-10-0.8v-10c3.3,0.5,6.6,0.8,10,0.8c7.4,0,15.5-1.2,20-4.4v7.7 C151.5,406.9,142.9,409.7,131.5,409.7z"></path> <path class="st14" d="M131.5,423.1c-3.4,0-6.7-0.3-10-0.8v-10c3.3,0.6,6.6,0.8,10,0.8c7.4,0,15.5-1.2,20-4.4v7.7 C151.5,420.2,142.9,423.1,131.5,423.1z"></path> <path class="st14" d="M121.5,425.6c3.3,0.6,6.6,0.8,10,0.8c7.4,0,15.5-1.2,20-4.4v7.7c0,3.8-8.6,6.7-20,6.7c-3.4,0-6.7-0.3-10-0.8 L121.5,425.6z"></path> <path class="st14" d="M407.7,369.8c-11.4,0-20,2.9-20,6.7s8.6,6.7,20,6.7s20-2.9,20-6.7S419.1,369.8,407.7,369.8z"></path> <path class="st7" d="M441.9,433.1c-7.4,0-15.5-1.2-20-4.4v7.7c0,3.8,8.6,6.7,20,6.7s20-2.9,20-6.7v-7.7 C457.4,431.8,449.2,433.1,441.9,433.1z"></path> <path class="st7" d="M441.9,419.7c-7.4,0-15.5-1.2-20-4.4v7.7c0,3.8,8.6,6.7,20,6.7s20-2.9,20-6.7v-7.7 C457.4,418.5,449.2,419.7,441.9,419.7z"></path> <path class="st7" d="M441.9,406.4c-7.4,0-15.5-1.2-20-4.4v7.7c0,3.8,8.6,6.7,20,6.7s20-2.9,20-6.7V402 C457.4,405.2,449.2,406.4,441.9,406.4z"></path> <path class="st7" d="M441,389.7c-11.4,0-20,2.9-20,6.7s8.6,6.7,20,6.7s20-2.9,20-6.7S452.4,389.7,441,389.7z"></path> <path class="st14" d="M408.5,396.4c3.4,0,6.8-0.3,10.1-0.9c0.5-3.8,4.6-6.2,9.9-7.6v-5.9c-4.5,3.1-12.6,4.4-20,4.4s-15.5-1.2-20-4.4 v7.7C388.5,393.5,397.1,396.4,408.5,396.4z"></path> <path class="st14" d="M408.5,409.7c3.4,0,6.7-0.3,10-0.8v-10c-3.3,0.5-6.6,0.8-10,0.8c-7.4,0-15.5-1.2-20-4.4v7.7 C388.5,406.9,397.1,409.7,408.5,409.7z"></path> <path class="st14" d="M408.5,423.1c3.4,0,6.7-0.3,10-0.8v-10c-3.3,0.6-6.6,0.8-10,0.8c-7.4,0-15.5-1.2-20-4.4v7.7 C388.5,420.2,397.1,423.1,408.5,423.1z"></path> <path class="st14" d="M418.5,425.6c-3.3,0.6-6.6,0.8-10,0.8c-7.4,0-15.5-1.2-20-4.4v7.7c0,3.8,8.6,6.7,20,6.7c3.4,0,6.7-0.3,10-0.8 V425.6z"></path> <rect x="188.9" y="141.4" class="st10" width="164.2" height="16.1"></rect> <ellipse transform="matrix(0.9985 -5.529870e-02 5.529870e-02 0.9985 -3.3944 10.7589)" class="st8" cx="192.7" cy="66.7" rx="29.4" ry="29.4"></ellipse> <path class="st9" d="M199.3,55.1c-2.6-0.4-5.1,0.6-6.8,2.5c-2.9-3-7.8-3.1-10.7-0.2c-2.7,2.6-3,6.8-0.9,9.9L192,78.1 c0.3,0.3,0.8,0.3,1,0l11.1-10.8c2.6-3.3,2-8-1.2-10.7C201.9,55.8,200.6,55.4,199.3,55.1L199.3,55.1z"></path> </svg> 