<?xml version="1.0" encoding="UTF-8"?> <!-- Generator: Adobe Illustrator 26.2.0, SVG Export Plug-In . SVG Version: 6.00 Build 0) --> <svg xmlns="http://www.w3.org/2000/svg" xmlns:xlink="http://www.w3.org/1999/xlink" version="1.1" id="Layer_1" x="0px" y="0px" viewBox="0 0 540 540" style="enable-background:new 0 0 540 540;" xml:space="preserve"> <style type="text/css"> .st0{opacity:0.8;clip-path:url(#XMLID_00000088097451110838062300000009036779765723960198_);} .st1{fill:#5988AE;} .st2{fill:#183059;} .st3{fill:#FCBB47;} .st4{fill:#A1ACBD;} .st5{fill:#F9B948;} .st6{fill:#FDDDA3;} .st7{fill:#978AB2;} .st8{fill:#2E6B9A;} </style> <g> <defs> <rect id="XMLID_00000076583937345373220470000006067698164883044280_" width="540" height="540"></rect> </defs> <use xlink:href="#XMLID_00000076583937345373220470000006067698164883044280_" style="overflow:visible;fill:#2E6B9A;"></use> <clipPath id="XMLID_00000160191954163294131900000004598778143748604063_"> <use xlink:href="#XMLID_00000076583937345373220470000006067698164883044280_" style="overflow:visible;"></use> </clipPath> <g style="opacity:0.8;clip-path:url(#XMLID_00000160191954163294131900000004598778143748604063_);"> <g> <path class="st1" d="M93.2,81.8H26.4c-5.3,0-9.4-4.5-9.4-9.4V31.8c0-5.3,4.5-9.4,9.4-9.4h66.8c5.3,0,9.4,4.5,9.4,9.4v40.6 C102.6,77.3,99,81.8,93.2,81.8z"></path> </g> <g> <path class="st1" d="M213.7,81.8h-66.8c-5.3,0-9.4-4.5-9.4-9.4V31.8c0-5.3,4.5-9.4,9.4-9.4h66.8c5.3,0,9.4,4.5,9.4,9.4v40.6 C223.5,77.3,219,81.8,213.7,81.8z"></path> </g> <g> <path class="st1" d="M333.8,81.8H267c-5.3,0-9.4-4.5-9.4-9.4V31.8c0-5.3,4.5-9.4,9.4-9.4h66.8c5.3,0,9.4,4.5,9.4,9.4v40.6 C343.6,77.3,339.5,81.8,333.8,81.8z"></path> </g> <g> <path class="st1" d="M459.1,81.8h-66.8c-5.3,0-9.4-4.5-9.4-9.4V31.8c0-5.3,4.5-9.4,9.4-9.4h66.8c5.3,0,9.4,4.5,9.4,9.4v40.6 C468.6,77.3,464.5,81.8,459.1,81.8z"></path> </g> <g> <path class="st1" d="M579.6,81.8h-66.8c-5.3,0-9.4-4.5-9.4-9.4V31.8c0-5.3,4.5-9.4,9.4-9.4h66.8c5.3,0,9.4,4.5,9.4,9.4v40.6 C589.5,77.3,584.9,81.8,579.6,81.8z"></path> </g> <g> <path class="st1" d="M28.9,173.2h-66.8c-5.3,0-9.4-4.5-9.4-9.4v-40.6c0-5.3,4.5-9.4,9.4-9.4h66.8c5.3,0,9.4,4.5,9.4,9.4v40.6 C38.7,169.1,34.2,173.2,28.9,173.2z"></path> </g> <g> <path class="st1" d="M149,173.2H82.2c-5.3,0-9.4-4.5-9.4-9.4v-40.6c0-5.3,4.5-9.4,9.4-9.4H149c5.3,0,9.4,4.5,9.4,9.4v40.6 C158.8,169.1,154.3,173.2,149,173.2z"></path> </g> <g> <path class="st1" d="M269.4,173.2h-66.8c-5.3,0-9.4-4.5-9.4-9.4v-40.6c0-5.3,4.5-9.4,9.4-9.4h66.8c5.3,0,9.4,4.5,9.4,9.4v40.6 C279.3,169.1,274.8,173.2,269.4,173.2z"></path> </g> <g> <path class="st1" d="M394.4,173.2h-66.8c-5.3,0-9.4-4.5-9.4-9.4v-40.6c0-5.3,4.5-9.4,9.4-9.4h66.8c5.3,0,9.4,4.5,9.4,9.4v40.6 C404.2,169.1,400.1,173.2,394.4,173.2z"></path> </g> <g> <path class="st1" d="M514.9,173.2h-66.4c-5.3,0-9.4-4.5-9.4-9.4v-40.6c0-5.3,4.5-9.4,9.4-9.4h66.8c5.3,0,9.4,4.5,9.4,9.4v40.6 C524.7,169.1,520.2,173.2,514.9,173.2z"></path> </g> <g> <path class="st1" d="M55.5,271.1h-66.8c-5.3,0-9.4-4.5-9.4-9.4v-41.4c0-5.3,4.5-9.4,9.4-9.4h66.8c5.3,0,9.4,4.5,9.4,9.4v41.4 C64.9,266.6,60.4,271.1,55.5,271.1z"></path> </g> <g> <path class="st1" d="M175.6,271.1h-66.8c-5.3,0-9.4-4.5-9.4-9.4v-41.4c0-5.3,4.5-9.4,9.4-9.4h66.8c5.3,0,9.4,4.5,9.4,9.4v41.4 C185,266.6,180.5,271.1,175.6,271.1z"></path> </g> <g> <path class="st1" d="M296.1,271.1h-66.8c-5.3,0-9.4-4.5-9.4-9.4v-41.4c0-5.3,4.5-9.4,9.4-9.4h66.8c5.3,0,9.4,4.5,9.4,9.4v41.4 C305.5,266.6,301,271.1,296.1,271.1z"></path> </g> <g> <path class="st1" d="M421.4,271.1h-66.8c-5.3,0-9.4-4.5-9.4-9.4v-41.4c0-5.3,4.5-9.4,9.4-9.4h66.8c5.3,0,9.4,4.5,9.4,9.4v41.4 C430.5,266.6,426.4,271.1,421.4,271.1z"></path> </g> <g> <path class="st1" d="M541.5,271.1h-66.8c-5.3,0-9.4-4.5-9.4-9.4v-41.4c0-5.3,4.5-9.4,9.4-9.4h66.8c5.3,0,9.4,4.5,9.4,9.4v41.4 C550.9,266.6,546.4,271.1,541.5,271.1z"></path> </g> </g> </g> <ellipse id="XMLID_00000057142074624226830520000005556402367709739655_" class="st2" cx="270.2" cy="421.2" rx="184.3" ry="45.4"></ellipse> <g id="Layer_2_00000096021267635045421790000015290323069078117781_"> <rect x="336.9" y="-3.7" class="st3" width="16.1" height="499.5"></rect> <rect x="174.1" y="-3.7" class="st3" width="15.9" height="499.5"></rect> <path class="st3" d="M190,356.6v19.9l0,0c0-1.6,1.3-3,3-3h141c1.4,0,2.6,1,2.9,2.4v-19.2c-0.1,0.4-0.6,0.9-1.1,0.9H191 C190.4,357.6,190,357.1,190,356.6z"></path> <path class="st3" d="M189.8,63.9v19.4c0.3-1.4,1.4-2.4,2.9-2.4h141.2c1.4,0,2.6,1,2.9,2.4V64c-0.1,0.4-0.6,0.9-1.1,0.9H191 C190.4,64.8,190,64.3,189.8,63.9z"></path> <path class="st3" d="M190,210.4v19.1c0.3-1.3,1.4-2.3,2.9-2.3H334c1.4,0,2.6,1,2.9,2.4v-19.2c-0.1,0.4-0.6,0.9-1.1,0.7H191 C190.5,211.1,190.1,210.8,190,210.4z"></path> <polygon class="st4" points="193.4,451.4 189.1,367.6 171.9,367.6 166.9,454.2 "></polygon> <path class="st4" d="M162.7,343.1c0.1,0.4,0,0.7-0.1,1.1c-0.6,1.3-0.7,2.9-0.3,4.2l8.5,21.7c0.4,1.1,0.7,2.3,0.6,3.6l-1.3,26.5 l18.6-7.7l1.4-18.5l6.3-17.5c1.1-2.9,1.6-6,1.3-9.2l-0.4-4.3l-2-15.8c0-0.4-0.3-0.7-0.4-1c-0.7-0.7-1.7-0.6-2.4,0 c-1.6,1.6-3,5.6-2.4,15.2s-6.2-2.2-8.6-6.6c-0.6-1-1-2-1.4-3l-5.7-15.1c-0.3,0-0.6,0-1,0c-2.4,0.4-4.2,2.7-3.7,5.3l0.1,0.7 c0.4,2.4-1,4.9-3.3,5.6l0,0l-0.6,0.3c-1.1,0.7-1.7,1.9-1.6,3.2L164,333c0,0.4-0.3,0.9-0.6,1.3c-1.1,1.4-1.6,3.2-1.1,4.9 L162.7,343.1z"></path> <path class="st4" d="M327.5,310.4l28.8,18.9l20.4-67.1c1.3-3.7,1.6-7.6,0.7-11.5l-10-63.6l0,0v-0.3l-0.1-0.7l0,0l-5-29.4 c-0.3-1.1-0.1-2.4,0.1-3.6l5.7-22.5c0.1-1.4-0.1-2.9-0.9-4.2c-0.1-0.3-0.3-0.7-0.3-1l0.3-3.6c0.1-1.7-0.4-3.4-1.9-4.7 c-0.3-0.3-0.6-0.7-0.7-1.1l-0.3-1.3c-0.3-1.4-0.7-2.4-2-3l-0.7-0.1l0,0c-2.4-0.4-4.2-2.7-4-5.2v-0.9c0-0.3,0-0.6,0-0.9 c-0.3-2.4-2.4-4.2-4.9-3.9l-4.2,15.8c-0.3,1-0.6,2.2-1,3.2c-1.9,4.7-7.2,17.2-7.7,7.6c-0.6-9.6-2.6-13.3-4.3-14.8 c-0.3-0.3-0.7-0.4-1-0.4c-1,0-1.7,0.7-1.7,1.7v15.8l0.1,4.3c0.1,3.2,1,6.2,2.4,8.9l8.9,16.6l0.3,2l3.9,89.7c0,2.4-0.4,5-1.3,7.3 L327.5,310.4z"></path> <polygon class="st5" points="346.6,375.3 346.8,376.8 347.2,375.3 "></polygon> <path class="st6" d="M312.1,323.3h0.3c13.6,0,25.1,9.9,27.3,23.2l5.5,33.9l0.6,3.2l0.9-3.2l21.7-84.5c0.4-1.4-0.1-2.9-1.1-3.7 l-2.9-2.4c-4.4-3.7-11-10.2-23-10.6l-2.3,0.1l-17.6,33c-1.3,2.7-2.9,5.2-4.7,7.5C315.2,321.1,313.8,322.3,312.1,323.3z"></path> <path class="st4" d="M178.4,476.5L178.4,476.5c0,0,16.2,1.3,26.5-28.5l16.9-45.9l-37-11.9L167,453.5 C166,459.4,168.2,475.5,178.4,476.5z"></path> <path class="st6" d="M210.8,434.6c0.6,0,1.3-0.4,1.4-1l2.6-12.1c0.1-0.3,0.1-0.6,0-0.7l-11.2-63.7c-8.9,7.2-15.5,17.1-20.5,34.1 c-7,24-11,36.6-12.3,41.5c0,0.1,0,0.1,0,0.3c0,0.9,0.6,1.6,1.4,1.6H210.8z"></path> <polygon class="st6" points="202.9,358.3 231.4,350 210.2,433.7 195.7,433.7 "></polygon> <polygon class="st7" points="253.1,327.4 259.8,326.9 261.1,338.6 256.1,339 "></polygon> <path class="st4" d="M260.7,339.3L260.7,339.3l0.1,0.3l0,0l0.4,1.1c4.2,9.3,16.8,11.8,25.7,6.5l5.2-2c4.6-2.9,4.9,1.6,5.7,3.2 c-0.1-0.4-5.7-2.2-6.2-3.2c-15.5-29.7-2.3-30.7,2.2-33.7c2.6-1.7,2.9-3.2,1.9-5.5l-7.6-23.5c-0.6-1.4-1.7-2.7-3-3.6l0,0 c-1.7-1-2.9-2.7-3.3-4.7l-0.3-1.3c-0.3-1.3-0.9-2.4-1.7-3.3l-9-10.2c-1.7,1.4-7.2,6-2.7,10.8c4.4,4.7-3.2,4.2-1.7,10.8 c1.4,6.6-5.5,7.9,2.9,20.5c5.9,8.9-2.7,23-14.3,26.7C257.1,331.7,259,335.5,260.7,339.3z"></path> <path class="st6" d="M210.9,381.8l-0.9,54.5c0,1.3,0,2.6,0.1,3.9l3.7,55.8l119,0.1l12.8-112.5l-5.9-37 c-2.2-13.3-13.6-23.2-27.3-23.2h-0.3c-2.9,1.4-5.9,2.4-9,2.9l-0.7,0.1l-10.9,1c-13.8,1.6-42,6.7-75.9,22.4c-1.6,0.6-3.3,1.4-5,2.4 l-0.3,0.1l0,0c-2.2,1.1-4.2,2.4-6,4c-0.4,0.3-0.7,0.7-1.1,1.1C208.2,364.6,210.9,373,210.9,381.8z"></path> <path class="st2" d="M233.9,311.1c3,2.4,6.5,4.6,10,6.2c6.7,2.9,5.2,11.5,11,10.9c12.1-2.3,20.8-17.8,14.9-26.7 c-8.3-12.6,7.9-18.1,4-23.5c-2.7-3.9-0.9-1.4-5.6-8.2c-3-4.3,1-8.6,2.7-10.2c0.1-3.7-6-6.9-19.5-4.7c-10.5,1.6-21.9,5.9-29.4,23.2 c-0.6,1.7-1,3.3-1.3,5c8.5,1.4,14.3,9.2,15.1,18.1C236,304.8,235.3,308.1,233.9,311.1z"></path> <path class="st2" d="M231.7,309.4c0.7,0.6,1.4,1.3,2.2,1.9c1.4-3,2.2-6.3,2-9.8c-0.7-9-6.6-16.6-15.1-18.1 c-0.1,0.9-0.3,1.7-0.3,2.7c7.3,2.6,12.2,9.5,12.3,17.2C232.7,305.3,232.4,307.3,231.7,309.4z"></path> <path class="st2" d="M220.5,286c-0.4,9.8,5,17.8,11.2,23.4c0.7-2,1-4,1-6.2C232.7,295.4,227.8,288.4,220.5,286z"></path> <path class="st4" d="M281.6,310.9c0,0,17.1,2.2,14.3-4.9c-2-5.3-0.1-8.9-2.2-15.8c-1.4-4.6-4.3-8.6-8.5-11.2L281.6,310.9z"></path> </g> <path id="XMLID_00000179645238532351862150000011490294179999516091_" class="st8" d="M454.5,421.2c0,25.1-82.5,45.4-184.3,45.4 S85.9,446.3,85.9,421.2H0V540h540V421.2H454.5z"></path> </svg> 