<?xml version="1.0" encoding="UTF-8"?>
<svg xmlns="http://www.w3.org/2000/svg" width="20" height="20" viewBox="0 0 20 20" fill="none">
  <path d="M14.1666 13.3333C11.7074 13.3333 9.66409 12.8008 8.33325 11.9066C8.33325 12.5283 8.33325 12.9383 8.33325 13.3333C8.33325 14.7141 10.9449 15.8333 14.1666 15.8333C17.3883 15.8333 19.9999 14.7141 19.9999 13.3333C19.9999 12.9383 19.9999 12.5283 19.9999 11.9066C18.6691 12.8008 16.6258 13.3333 14.1666 13.3333Z" fill="#241F21"></path>
  <path d="M14.1666 17.5C11.7074 17.5 9.66409 16.9675 8.33325 16.0734C8.33325 16.695 8.33325 17.105 8.33325 17.5C8.33325 18.8809 10.9449 20 14.1666 20C17.3883 20 19.9999 18.8809 19.9999 17.5C19.9999 17.105 19.9999 16.695 19.9999 16.0734C18.6691 16.9675 16.6258 17.5 14.1666 17.5Z" fill="#241F21"></path>
  <path d="M14.1666 11.6666C17.3882 11.6666 19.9999 10.5473 19.9999 9.16663C19.9999 7.78591 17.3882 6.66663 14.1666 6.66663C10.9449 6.66663 8.33325 7.78591 8.33325 9.16663C8.33325 10.5473 10.9449 11.6666 14.1666 11.6666Z" fill="#241F21"></path>
  <path d="M5.83333 5C9.05499 5 11.6667 3.88071 11.6667 2.5C11.6667 1.11929 9.05499 0 5.83333 0C2.61167 0 0 1.11929 0 2.5C0 3.88071 2.61167 5 5.83333 5Z" fill="#241F21"></path>
  <path d="M6.66667 14.9775C6.39417 14.9909 6.1175 15 5.83333 15C3.37417 15 1.33083 14.4675 0 13.5734C0 14.195 0 14.605 0 15C0 16.3809 2.61167 17.5 5.83333 17.5C6.11667 17.5 6.39417 17.4884 6.66667 17.4717V14.9775Z" fill="#241F21"></path>
  <path d="M6.66667 10.8108C6.39417 10.8241 6.1175 10.8333 5.83333 10.8333C3.37417 10.8333 1.33083 10.3008 0 9.40662C0 10.0283 0 10.4383 0 10.8333C0 12.2141 2.61167 13.3333 5.83333 13.3333C6.11667 13.3333 6.39417 13.3216 6.66667 13.3049V10.8108Z" fill="#241F21"></path>
  <path d="M8.26667 6.47166C7.515 6.59666 6.70167 6.66666 5.83333 6.66666C3.37417 6.66666 1.33083 6.13416 0 5.23999C0 5.86166 0 6.27166 0 6.66666C0 8.04749 2.61167 9.16666 5.83333 9.16666C6.1175 9.16666 6.395 9.15499 6.66917 9.13832C6.67917 8.08582 7.25833 7.17166 8.26667 6.47166Z" fill="#241F21"></path>
</svg>
