<?xml version="1.0" encoding="UTF-8"?>
<svg xmlns="http://www.w3.org/2000/svg" width="20" height="20" viewBox="0 0 20 20" fill="none">
  <g clip-path="url(#clip0)">
    <path d="M19.0937 12.8662L16.3587 12.085C16.1376 12.0218 15.9383 11.8989 15.7826 11.7297C15.6269 11.5606 15.5209 11.3518 15.4762 11.1262L15.3087 10.2825C15.9618 9.98398 16.5156 9.50417 16.904 8.90012C17.2925 8.29606 17.4993 7.59317 17.4999 6.875V5.1575C17.5151 4.16305 17.1453 3.20123 16.4679 2.47304C15.7905 1.74485 14.8578 1.30664 13.8649 1.25C13.1237 1.22763 12.3925 1.42553 11.7637 1.81868C11.1349 2.21182 10.6368 2.78256 10.3324 3.45875C10.9287 4.3266 11.2486 5.35453 11.2499 6.4075V8.125C11.2477 8.57971 11.1825 9.03192 11.0562 9.46875C11.3802 9.80867 11.7652 10.0847 12.1912 10.2825L12.0237 11.125C11.9789 11.3505 11.8729 11.5593 11.7172 11.7285C11.5615 11.8976 11.3622 12.0205 11.1412 12.0837L10.0874 12.385L11.9374 12.9137C12.4589 13.0644 12.9175 13.3801 13.2443 13.8135C13.5711 14.247 13.7485 14.7747 13.7499 15.3175V18.125C13.7478 18.3384 13.7089 18.5498 13.6349 18.75H19.3749C19.5407 18.75 19.6996 18.6841 19.8168 18.5669C19.9341 18.4497 19.9999 18.2908 19.9999 18.125V14.0675C19.9998 13.796 19.9113 13.532 19.7478 13.3152C19.5843 13.0985 19.3547 12.9409 19.0937 12.8662Z" fill="#241F21"></path>
    <path d="M11.5938 14.1163L8.85875 13.3351C8.63755 13.2718 8.43811 13.1486 8.2824 12.9792C8.12669 12.8099 8.02075 12.6008 7.97625 12.3751L7.80875 11.5313C8.46175 11.2329 9.01535 10.7533 9.40378 10.1495C9.79222 9.54564 9.99915 8.84301 10 8.12505V6.40755C10.0152 5.41311 9.6454 4.45129 8.96799 3.7231C8.29058 2.99491 7.35794 2.5567 6.365 2.50005C5.86295 2.48465 5.36292 2.57026 4.8946 2.75181C4.42627 2.93336 3.99918 3.20714 3.63869 3.5569C3.2782 3.90667 2.99165 4.32529 2.79604 4.78792C2.60044 5.25056 2.49976 5.74777 2.5 6.25006V8.12505C2.50061 8.84323 2.70743 9.54612 3.09588 10.1502C3.48433 10.7542 4.03806 11.234 4.69125 11.5326L4.52375 12.3751C4.47904 12.6006 4.37301 12.8094 4.21731 12.9785C4.06162 13.1477 3.86229 13.2706 3.64125 13.3338L0.90625 14.1151C0.645031 14.1898 0.415268 14.3476 0.251746 14.5645C0.0882245 14.7815 -0.000150796 15.0459 1.93151e-07 15.3176V18.1251C1.93151e-07 18.2908 0.0658482 18.4498 0.183058 18.567C0.300269 18.6842 0.45924 18.7501 0.625 18.7501H11.875C12.0408 18.7501 12.1997 18.6842 12.3169 18.567C12.4342 18.4498 12.5 18.2908 12.5 18.1251V15.3176C12.4999 15.0461 12.4114 14.782 12.2479 14.5653C12.0844 14.3486 11.8548 14.191 11.5938 14.1163Z" fill="#241F21"></path>
  </g>
  <defs>
    <clipPath id="clip0">
      <rect width="20" height="20" fill="white"></rect>
    </clipPath>
  </defs>
</svg>
